M48
; DRILL file {KiCad 9.0.5} date 2026-02-28T21:51:56+0900
; FORMAT={-:-/ absolute / inch / decimal}
; #@! TF.CreationDate,2026-02-28T21:51:56+09:00
; #@! TF.GenerationSoftware,Kicad,Pcbnew,9.0.5
; #@! TF.FileFunction,Plated,1,2,PTH
FMAT,2
INCH
; #@! TA.AperFunction,Plated,PTH,ViaDrill
T1C0.0118
; #@! TA.AperFunction,Plated,PTH,ComponentDrill
T2C0.0236
; #@! TA.AperFunction,Plated,PTH,ComponentDrill
T3C0.0315
; #@! TA.AperFunction,Plated,PTH,ComponentDrill
T4C0.0320
; #@! TA.AperFunction,Plated,PTH,ComponentDrill
T5C0.0394
; #@! TA.AperFunction,Plated,PTH,ComponentDrill
T6C0.0512
%
G90
G05
T1
X2.2638Y-5.0
X2.4016Y-5.0197
X2.5984Y-4.5472
X3.0315Y-5.6102
X3.1496Y-5.1969
X3.1496Y-5.9055
X3.189Y-5.2362
X3.3858Y-5.748
X3.4843Y-4.3701
X3.4843Y-4.5079
X3.4843Y-5.1772
X3.4941Y-6.2303
X3.5039Y-3.4449
X3.5039Y-4.1142
X3.6024Y-2.9134
X3.9567Y-5.4921
X3.9567Y-5.748
X4.0551Y-3.0512
X4.0748Y-3.1102
X4.0748Y-3.7008
X4.0945Y-5.748
X4.1142Y-3.1496
X4.1142Y-3.2087
X4.1142Y-3.7205
X4.1437Y-1.7815
X4.1437Y-2.4311
X4.1535Y-3.248
X4.1634Y-2.4705
X4.1809Y-6.0357
X4.1929Y-4.4291
X4.2126Y-2.1457
X4.2126Y-2.7756
X4.2126Y-3.4449
X4.2126Y-4.1142
X4.5669Y-4.4882
X4.5669Y-5.1575
X4.5669Y-5.4134
X4.7539Y-4.6752
X4.8031Y-2.3425
X4.8228Y-3.0118
X4.8228Y-3.6811
X4.8228Y-4.3504
X4.8425Y-1.9882
X4.8622Y-2.6378
X4.8622Y-3.3071
X4.8622Y-3.9764
X4.9016Y-4.4291
X4.9213Y-1.811
X4.9213Y-2.4409
X4.9213Y-3.1299
X4.9213Y-3.7795
X4.9606Y-4.4488
X4.9803Y-1.9094
X5.1181Y-2.5787
X5.1772Y-2.7953
X5.4331Y-3.4055
X5.4528Y-3.1102
X5.4724Y-2.0669
X5.4724Y-3.4646
X5.5118Y-1.752
X5.5118Y-2.0866
X5.5315Y-2.1457
X5.5315Y-4.2323
X5.5709Y-1.7913
X5.5709Y-2.0079
X5.5906Y-2.2835
X5.5906Y-2.6575
X5.5906Y-2.9724
X5.5906Y-3.3465
X5.5906Y-3.6417
X5.5906Y-4.0157
X5.5906Y-4.311
X5.6299Y-1.6929
X5.6299Y-2.126
X5.6299Y-2.7953
X5.6299Y-3.4449
X5.6299Y-4.1142
X5.6299Y-4.7047
X5.6693Y-1.6102
X5.6693Y-2.0079
X5.8071Y-2.2441
X5.8465Y-2.4803
X5.9449Y-2.4016
X6.1614Y-2.3819
X6.1693Y-2.0788
X6.2008Y-3.0512
X6.2205Y-2.1063
X6.2402Y-4.4094
X6.2795Y-3.0118
X6.2992Y-2.1063
X6.2992Y-2.3031
X6.2992Y-2.6181
X6.2992Y-3.2874
X6.2992Y-3.6024
X6.2992Y-3.9567
X6.2992Y-4.3504
X6.2992Y-4.626
X6.3386Y-2.4803
X6.3386Y-2.7362
X6.3386Y-3.1102
X6.3386Y-3.7795
X6.3386Y-4.4488
X6.3386Y-4.7638
X6.3976Y-1.6732
X6.3976Y-4.3504
X6.4173Y-2.2047
X6.4764Y-1.6339
X6.4764Y-1.8898
X6.5354Y-3.4646
X6.6929Y-1.8504
X6.7323Y-1.3976
X6.7913Y-1.374
X6.85Y-1.6437
X6.8504Y-1.8504
X6.9094Y-2.1063
X6.9488Y-1.4724
X6.9685Y-3.4055
X6.9882Y-2.2638
X7.0472Y-2.5
X7.0472Y-2.7559
X7.0472Y-3.1299
X7.0472Y-3.7992
X7.0472Y-4.4685
X7.0472Y-4.8425
X7.1063Y-2.3031
X7.1063Y-3.248
X7.1457Y-1.9685
X7.2244Y-1.6732
X7.2638Y-2.1654
X7.2835Y-2.2244
X7.313Y-2.2736
X7.5394Y-1.8898
X7.5394Y-2.7165
X7.6181Y-2.7165
X7.6575Y-1.7717
X7.6772Y-3.3465
X7.6772Y-4.0157
X7.6772Y-4.685
X7.7067Y-3.622
X7.7077Y-4.9213
X7.7165Y-2.6772
X7.7165Y-2.9528
X7.7165Y-4.2913
X7.7362Y-1.811
X7.7559Y-2.815
X7.7559Y-3.4449
X7.7559Y-4.1142
X7.7559Y-4.7835
X7.8346Y-1.9094
X7.8937Y-1.7952
X7.9394Y-1.7386
X7.9724Y-1.5354
X8.0394Y-1.6339
X8.1378Y-1.6339
T3
X2.6969Y-5.5118
X2.815Y-5.5118
X2.815Y-5.8071
X2.9331Y-5.8071
X2.9331Y-6.1024
X3.0512Y-6.1024
X6.85Y-1.437
X6.85Y-1.55
T4
X7.0079Y-1.6217
X7.0079Y-1.7217
X7.0079Y-1.8217
X7.0079Y-1.9217
X7.1394Y-1.4764
X7.1394Y-2.0764
X7.2394Y-1.4764
X7.2394Y-2.0764
X7.3394Y-1.4764
X7.3394Y-2.0764
X7.4394Y-1.4764
X7.4394Y-2.0764
X7.5394Y-1.4764
X7.5394Y-2.0764
X7.6394Y-1.4764
X7.6394Y-2.0764
X7.7394Y-1.4764
X7.7394Y-2.0764
X7.8394Y-1.4764
X7.8394Y-2.0764
X7.9394Y-1.4764
X7.9394Y-2.0764
X8.0394Y-1.4764
X8.0394Y-2.0764
X8.1394Y-1.4764
X8.1394Y-2.0764
X8.2394Y-1.4764
X8.2394Y-2.0764
T5
X3.3661Y-3.363
X3.3661Y-3.463
X3.3661Y-3.563
X3.3661Y-3.663
X3.3661Y-3.763
X3.3661Y-3.863
X3.3661Y-3.963
X3.3661Y-4.063
T6
X6.0925Y-1.4764
X6.3484Y-1.4764
T2
G00X6.4563Y-1.8291
M15
G01X6.4563Y-1.7936
M16
G05
G00X6.6137Y-1.4944
M15
G01X6.6137Y-1.459
M16
G05
G00X6.6137Y-1.6125
M15
G01X6.6137Y-1.5771
M16
G05
G00X6.6137Y-1.77
M15
G01X6.6137Y-1.7346
M16
G05
M30
