%TF.GenerationSoftware,KiCad,Pcbnew,9.0.5*%
%TF.CreationDate,2026-02-28T21:51:56+09:00*%
%TF.ProjectId,MicErgo_right,4d696345-7267-46f5-9f72-696768742e6b,rev?*%
%TF.SameCoordinates,Original*%
%TF.FileFunction,Legend,Top*%
%TF.FilePolarity,Positive*%
%FSLAX46Y46*%
G04 Gerber Fmt 4.6, Leading zero omitted, Abs format (unit mm)*
G04 Created by KiCad (PCBNEW 9.0.5) date 2026-02-28 21:51:56*
%MOMM*%
%LPD*%
G01*
G04 APERTURE LIST*
%ADD10C,0.600000*%
%ADD11C,0.100000*%
%ADD12C,0.150000*%
%ADD13C,1.524000*%
%ADD14C,1.397000*%
%ADD15C,1.500000*%
%ADD16R,0.700000X1.200000*%
%ADD17C,2.200000*%
%ADD18C,3.000000*%
%ADD19C,5.000000*%
%ADD20C,2.000000*%
%ADD21C,1.210000*%
%ADD22O,1.300000X2.200000*%
G04 APERTURE END LIST*
D10*
G36*
X98168004Y-114174877D02*
G01*
X98648552Y-113441844D01*
X99043666Y-112866456D01*
X99728106Y-111938529D01*
X100153869Y-111396196D01*
X100507546Y-110983845D01*
X100659667Y-110840552D01*
X100782089Y-110769378D01*
X100883680Y-110748761D01*
X100972677Y-110765867D01*
X101044574Y-110816538D01*
X101087428Y-110877365D01*
X101101972Y-110953620D01*
X101074418Y-111084495D01*
X100960616Y-111324563D01*
X100680653Y-111821292D01*
X100270499Y-112567085D01*
X100069435Y-112964043D01*
X99671564Y-113872923D01*
X99424329Y-114561086D01*
X99329249Y-114930095D01*
X99305260Y-115136889D01*
X99311977Y-115221153D01*
X99329074Y-115379911D01*
X99310339Y-115477511D01*
X99251527Y-115571031D01*
X99177156Y-115633722D01*
X99097348Y-115653157D01*
X99008551Y-115625956D01*
X98931874Y-115535310D01*
X98894008Y-115436966D01*
X98879362Y-115290457D01*
X98916654Y-114952838D01*
X99051960Y-114457883D01*
X99326975Y-113754531D01*
X99791161Y-112784367D01*
X100501134Y-111481489D01*
X99970938Y-112110722D01*
X99354672Y-112958905D01*
X98640920Y-114069242D01*
X98416027Y-114401336D01*
X98266923Y-114566887D01*
X98116901Y-114666658D01*
X97987265Y-114695725D01*
X97869366Y-114666188D01*
X97787291Y-114577878D01*
X97756075Y-114496440D01*
X97745159Y-114399581D01*
X97772539Y-114094020D01*
X97866338Y-113696302D01*
X98047117Y-113184188D01*
X98339035Y-112533077D01*
X98769452Y-111715963D01*
X98442773Y-112093190D01*
X98114882Y-112537534D01*
X97567420Y-113407486D01*
X97084177Y-114294862D01*
X96561802Y-115451657D01*
X96435315Y-115682767D01*
X96315807Y-115793912D01*
X96197575Y-115826570D01*
X96146669Y-115814822D01*
X96104458Y-115778637D01*
X96075148Y-115697426D01*
X96096125Y-115605876D01*
X96202460Y-115338389D01*
X96616146Y-114420341D01*
X97135852Y-113486321D01*
X97715196Y-112590660D01*
X98355461Y-111731533D01*
X98748048Y-111254770D01*
X98937064Y-111048569D01*
X99106864Y-110918594D01*
X99220386Y-110885537D01*
X99289031Y-110900440D01*
X99360215Y-110949345D01*
X99422090Y-111030508D01*
X99441731Y-111119399D01*
X99414216Y-111235857D01*
X99297017Y-111461034D01*
X98910546Y-112153310D01*
X98542917Y-112953663D01*
X98288634Y-113672349D01*
X98168004Y-114174877D01*
G37*
G36*
X101142272Y-113249808D02*
G01*
X101199393Y-113261769D01*
X101245770Y-113297740D01*
X101275079Y-113378646D01*
X101256210Y-113449742D01*
X101174634Y-113588695D01*
X100854127Y-114117440D01*
X100669662Y-114489340D01*
X100518964Y-114857498D01*
X100386340Y-115237639D01*
X100335965Y-115343446D01*
X100276820Y-115397490D01*
X100206516Y-115414715D01*
X100140601Y-115400114D01*
X100089585Y-115356402D01*
X100059530Y-115306964D01*
X100049895Y-115255041D01*
X100084100Y-115098477D01*
X100269103Y-114570551D01*
X100481533Y-114110769D01*
X100823535Y-113560607D01*
X101008854Y-113317585D01*
X101077103Y-113265416D01*
X101142272Y-113249808D01*
G37*
G36*
X101791347Y-111979745D02*
G01*
X101883674Y-111999194D01*
X101935316Y-112051796D01*
X101954684Y-112147356D01*
X101921060Y-112292649D01*
X101802033Y-112472810D01*
X101648456Y-112606796D01*
X101518100Y-112644085D01*
X101454734Y-112631152D01*
X101404833Y-112592794D01*
X101372520Y-112540592D01*
X101361480Y-112476474D01*
X101379023Y-112370475D01*
X101436374Y-112253351D01*
X101545272Y-112119879D01*
X101684208Y-112009564D01*
X101791347Y-111979745D01*
G37*
G36*
X102402259Y-113171650D02*
G01*
X102528881Y-113190984D01*
X102611531Y-113242534D01*
X102662618Y-113326830D01*
X102681917Y-113457109D01*
X102661707Y-113618374D01*
X102598474Y-113785776D01*
X102484997Y-113963607D01*
X102327061Y-114119451D01*
X102214498Y-114158696D01*
X102136319Y-114130087D01*
X102108863Y-114039628D01*
X102138477Y-113941320D01*
X102221214Y-113861636D01*
X102345778Y-113689750D01*
X102389131Y-113568239D01*
X102376816Y-113535099D01*
X102337535Y-113523360D01*
X102263733Y-113544378D01*
X102125044Y-113634490D01*
X101907022Y-113850635D01*
X101662814Y-114201133D01*
X101517550Y-114479705D01*
X101445315Y-114684820D01*
X101424983Y-114834333D01*
X101435663Y-114902553D01*
X101467420Y-114962255D01*
X101540104Y-115026190D01*
X101633810Y-115047435D01*
X101767162Y-115024214D01*
X101930977Y-114944531D01*
X102136340Y-114786706D01*
X102369763Y-114556116D01*
X102554911Y-114335772D01*
X102650163Y-114232259D01*
X102716417Y-114206934D01*
X102792132Y-114243876D01*
X102822052Y-114317759D01*
X102800364Y-114399558D01*
X102708953Y-114550259D01*
X102495072Y-114809909D01*
X102208811Y-115086795D01*
X101961562Y-115259377D01*
X101745391Y-115351351D01*
X101551684Y-115379605D01*
X101389384Y-115357920D01*
X101260834Y-115296655D01*
X101157842Y-115195202D01*
X101085370Y-115049600D01*
X101060450Y-114876465D01*
X101088575Y-114645508D01*
X101181325Y-114373980D01*
X101355679Y-114050924D01*
X101560227Y-113765934D01*
X101779511Y-113527140D01*
X102013913Y-113330102D01*
X102234224Y-113206285D01*
X102402259Y-113171650D01*
G37*
G36*
X104750349Y-112755521D02*
G01*
X104866975Y-112734455D01*
X105567923Y-112614585D01*
X105920883Y-112585467D01*
X106053031Y-112608773D01*
X106121782Y-112667938D01*
X106145892Y-112767733D01*
X106122152Y-112865051D01*
X106054606Y-112921912D01*
X105984420Y-112942858D01*
X105853411Y-112956716D01*
X105260227Y-113010835D01*
X104824057Y-113082757D01*
X104513434Y-113165849D01*
X104321433Y-113495779D01*
X103986480Y-114172435D01*
X103803160Y-114596168D01*
X103678123Y-114949738D01*
X103813372Y-114901500D01*
X104287875Y-114750226D01*
X104559840Y-114679239D01*
X104874445Y-114632426D01*
X105159456Y-114617568D01*
X105333338Y-114631035D01*
X105436977Y-114663668D01*
X105498767Y-114720916D01*
X105520935Y-114818763D01*
X105494970Y-114914755D01*
X105418659Y-114970804D01*
X105204030Y-114988817D01*
X104754551Y-115035373D01*
X104339253Y-115124601D01*
X103954290Y-115254795D01*
X103596302Y-115425401D01*
X103503695Y-115465884D01*
X103434491Y-115477302D01*
X103342678Y-115453342D01*
X103256193Y-115374720D01*
X103204975Y-115286957D01*
X103189027Y-115201613D01*
X103221652Y-115064876D01*
X103404876Y-114570551D01*
X103636165Y-114029647D01*
X103928826Y-113430757D01*
X104289951Y-112768649D01*
X104925593Y-111769085D01*
X105123125Y-111460118D01*
X105051025Y-111425253D01*
X105008311Y-111365942D01*
X104992455Y-111273272D01*
X105020456Y-111174433D01*
X105107554Y-111104134D01*
X105328727Y-111032225D01*
X105792961Y-110942934D01*
X106522340Y-110853195D01*
X107075541Y-110826919D01*
X107266991Y-110851399D01*
X107355239Y-110907707D01*
X107382371Y-110990561D01*
X107356874Y-111091483D01*
X107275820Y-111178934D01*
X107212785Y-111206507D01*
X107106071Y-111217707D01*
X107027608Y-111217707D01*
X106914951Y-111217707D01*
X106205731Y-111268998D01*
X105819730Y-111325163D01*
X105526736Y-111394478D01*
X105555129Y-111470804D01*
X105528249Y-111545440D01*
X105392708Y-111742829D01*
X105229065Y-111995621D01*
X104910051Y-112482271D01*
X104750349Y-112755521D01*
G37*
G36*
X108404469Y-110984271D02*
G01*
X108481769Y-111045821D01*
X108534952Y-111133756D01*
X108552600Y-111233888D01*
X108518749Y-111451132D01*
X108394809Y-111765880D01*
X108138262Y-112213867D01*
X107696528Y-112836121D01*
X107284906Y-113324209D01*
X106780312Y-113831106D01*
X106399294Y-114179457D01*
X106246947Y-114607493D01*
X106195961Y-114834638D01*
X106214345Y-114891961D01*
X106268318Y-114910659D01*
X106340034Y-114892665D01*
X106439108Y-114825408D01*
X106578201Y-114679849D01*
X106850838Y-114270437D01*
X106933589Y-114174724D01*
X107009290Y-114148621D01*
X107083504Y-114172759D01*
X107107903Y-114244181D01*
X107085105Y-114342456D01*
X106989452Y-114527034D01*
X106767795Y-114846851D01*
X106567875Y-115080283D01*
X106395237Y-115223135D01*
X106244062Y-115298107D01*
X106107423Y-115320987D01*
X105985927Y-115292994D01*
X105887605Y-115207414D01*
X105843269Y-115119202D01*
X105827765Y-115009883D01*
X105852372Y-114801425D01*
X105944391Y-114476823D01*
X106080220Y-114120814D01*
X106289690Y-113649755D01*
X106325855Y-113578925D01*
X106660633Y-113578925D01*
X107084364Y-113169587D01*
X107496146Y-112671177D01*
X107895892Y-112072862D01*
X108134216Y-111625132D01*
X108184709Y-111439357D01*
X108170124Y-111389471D01*
X108129449Y-111374023D01*
X108022498Y-111417897D01*
X107819566Y-111617038D01*
X107454728Y-112117742D01*
X107063483Y-112767904D01*
X106660633Y-113578925D01*
X106325855Y-113578925D01*
X106706167Y-112834078D01*
X107106143Y-112160394D01*
X107489838Y-111611243D01*
X107769844Y-111280859D01*
X107990620Y-111087352D01*
X108165318Y-110991348D01*
X108307136Y-110963695D01*
X108404469Y-110984271D01*
G37*
G36*
X108861359Y-113060296D02*
G01*
X108969950Y-113137456D01*
X109019369Y-113217221D01*
X109037727Y-113336514D01*
X109014716Y-113502408D01*
X108933618Y-113725776D01*
X108995860Y-113798654D01*
X109010555Y-113841486D01*
X108974529Y-113915980D01*
X108677774Y-114392254D01*
X108508855Y-114697340D01*
X108374913Y-114979963D01*
X108683942Y-114730389D01*
X108887212Y-114518039D01*
X109125004Y-114211409D01*
X109258461Y-114003297D01*
X109322327Y-113929567D01*
X109379972Y-113909569D01*
X109448920Y-113931950D01*
X109471563Y-113998107D01*
X109446664Y-114104086D01*
X109340283Y-114310737D01*
X109121537Y-114618462D01*
X108850747Y-114911074D01*
X108522651Y-115189505D01*
X108130670Y-115453794D01*
X107773680Y-116169569D01*
X107577765Y-116515029D01*
X107305161Y-116884427D01*
X107070736Y-117106348D01*
X106866336Y-117220806D01*
X106681394Y-117255390D01*
X106541996Y-117234711D01*
X106437349Y-117176899D01*
X106358688Y-117080451D01*
X106317150Y-116974089D01*
X106302818Y-116851168D01*
X106314297Y-116774537D01*
X106646895Y-116774537D01*
X106665824Y-116847199D01*
X106708007Y-116889766D01*
X106763521Y-116903681D01*
X106884116Y-116869057D01*
X107040499Y-116740042D01*
X107250480Y-116457327D01*
X107481787Y-116072290D01*
X107661724Y-115736200D01*
X107392050Y-115875579D01*
X107136695Y-116061830D01*
X106893885Y-116299485D01*
X106755555Y-116485836D01*
X106666740Y-116675924D01*
X106646895Y-116774537D01*
X106314297Y-116774537D01*
X106339707Y-116604907D01*
X106455265Y-116355798D01*
X106665577Y-116095661D01*
X106996773Y-115819242D01*
X107879711Y-115309996D01*
X108119374Y-114806856D01*
X107864116Y-115053080D01*
X107672319Y-115170975D01*
X107524948Y-115203750D01*
X107432189Y-115186955D01*
X107354498Y-115136985D01*
X107287727Y-115047435D01*
X107248187Y-114943309D01*
X107235215Y-114836775D01*
X107244222Y-114756786D01*
X107603411Y-114756786D01*
X107627835Y-114842576D01*
X107699581Y-114870054D01*
X107816306Y-114825217D01*
X108026867Y-114627337D01*
X108258287Y-114321423D01*
X108320874Y-114230748D01*
X108270194Y-114151674D01*
X108281132Y-114116976D01*
X108324538Y-114065579D01*
X108480648Y-113895316D01*
X108599616Y-113723944D01*
X108666594Y-113590016D01*
X108683575Y-113508705D01*
X108664068Y-113445798D01*
X108607860Y-113425662D01*
X108519687Y-113446800D01*
X108388664Y-113527690D01*
X108194784Y-113704710D01*
X107994061Y-113936365D01*
X107826802Y-114183194D01*
X107691338Y-114446598D01*
X107621401Y-114640226D01*
X107603411Y-114756786D01*
X107244222Y-114756786D01*
X107253531Y-114674107D01*
X107316283Y-114465020D01*
X107437936Y-114197165D01*
X107650232Y-113837945D01*
X107881111Y-113544249D01*
X108130365Y-113308121D01*
X108368851Y-113145081D01*
X108566764Y-113060255D01*
X108734255Y-113034874D01*
X108861359Y-113060296D01*
G37*
G36*
X110910498Y-113115447D02*
G01*
X110996400Y-113175870D01*
X111051910Y-113279261D01*
X111073491Y-113444897D01*
X111035565Y-113740669D01*
X110905468Y-114118154D01*
X110651867Y-114600776D01*
X110385585Y-114979228D01*
X110153414Y-115206703D01*
X109948036Y-115324337D01*
X109759159Y-115360066D01*
X109634563Y-115338783D01*
X109537076Y-115277397D01*
X109459962Y-115170472D01*
X109424011Y-115069798D01*
X109411113Y-114943937D01*
X109426743Y-114796170D01*
X109761907Y-114796170D01*
X109790911Y-114892341D01*
X109838450Y-114935797D01*
X109895630Y-114949738D01*
X109992246Y-114928503D01*
X110104367Y-114855601D01*
X110239707Y-114708243D01*
X110371598Y-114498804D01*
X110421973Y-114398054D01*
X110349712Y-114326852D01*
X110333130Y-114285092D01*
X110350447Y-114246147D01*
X110444871Y-114128777D01*
X110633537Y-113887466D01*
X110724626Y-113710640D01*
X110749869Y-113580146D01*
X110733994Y-113530382D01*
X110702582Y-113495827D01*
X110657057Y-113484281D01*
X110547200Y-113522952D01*
X110343205Y-113692803D01*
X110098642Y-113974428D01*
X109928297Y-114251814D01*
X109797778Y-114571594D01*
X109761907Y-114796170D01*
X109426743Y-114796170D01*
X109441391Y-114657691D01*
X109537898Y-114342179D01*
X109712753Y-113989558D01*
X109918025Y-113687174D01*
X110138737Y-113442530D01*
X110375262Y-113248892D01*
X110600119Y-113128428D01*
X110783758Y-113093492D01*
X110910498Y-113115447D01*
G37*
G36*
X111555260Y-116063485D02*
G01*
X115072357Y-116063485D01*
X115072357Y-116415195D01*
X111555260Y-116415195D01*
X111555260Y-116063485D01*
G37*
G36*
X115235695Y-114137325D02*
G01*
X115557499Y-113822312D01*
X115972087Y-113475427D01*
X116307921Y-113244617D01*
X116425768Y-113191189D01*
X116477491Y-113207787D01*
X116535982Y-113268126D01*
X116568650Y-113346589D01*
X116543597Y-113410159D01*
X116435232Y-113516643D01*
X116211926Y-113712059D01*
X116114528Y-113838258D01*
X116090239Y-113919338D01*
X116109105Y-113970056D01*
X116169313Y-113988032D01*
X116331538Y-113943814D01*
X116669400Y-113747147D01*
X116777172Y-113704710D01*
X116838844Y-113735240D01*
X116872427Y-113807903D01*
X116852276Y-113872497D01*
X116770590Y-113974294D01*
X116581473Y-114133661D01*
X116370880Y-114267555D01*
X116180793Y-114340655D01*
X116005365Y-114363555D01*
X115897661Y-114348593D01*
X115798674Y-114303715D01*
X115738028Y-114237229D01*
X115715632Y-114124808D01*
X115727074Y-114040533D01*
X115760511Y-113967882D01*
X115527561Y-114174773D01*
X115169444Y-114591311D01*
X114966657Y-114897528D01*
X114750567Y-115295341D01*
X114653141Y-115421597D01*
X114546930Y-115457763D01*
X114468890Y-115442318D01*
X114426353Y-115401495D01*
X114410764Y-115329230D01*
X114443812Y-115169249D01*
X114609517Y-114707632D01*
X114824363Y-114213781D01*
X115029954Y-113833273D01*
X115225925Y-113547173D01*
X115372573Y-113385424D01*
X115481580Y-113309614D01*
X115564812Y-113288886D01*
X115652739Y-113318196D01*
X115689168Y-113360432D01*
X115700977Y-113411313D01*
X115686811Y-113468393D01*
X115630452Y-113560912D01*
X115449407Y-113789890D01*
X115313293Y-113987314D01*
X115235695Y-114137325D01*
G37*
G36*
X117618894Y-113249808D02*
G01*
X117676016Y-113261769D01*
X117722392Y-113297740D01*
X117751701Y-113378646D01*
X117732833Y-113449742D01*
X117651256Y-113588695D01*
X117330750Y-114117440D01*
X117146284Y-114489340D01*
X116995586Y-114857498D01*
X116862962Y-115237639D01*
X116812587Y-115343446D01*
X116753442Y-115397490D01*
X116683139Y-115414715D01*
X116617224Y-115400114D01*
X116566207Y-115356402D01*
X116536152Y-115306964D01*
X116526518Y-115255041D01*
X116560722Y-115098477D01*
X116745726Y-114570551D01*
X116958156Y-114110769D01*
X117300157Y-113560607D01*
X117485476Y-113317585D01*
X117553725Y-113265416D01*
X117618894Y-113249808D01*
G37*
G36*
X118267969Y-111979745D02*
G01*
X118360296Y-111999194D01*
X118411938Y-112051796D01*
X118431307Y-112147356D01*
X118397682Y-112292649D01*
X118278655Y-112472810D01*
X118125079Y-112606796D01*
X117994723Y-112644085D01*
X117931357Y-112631152D01*
X117881455Y-112592794D01*
X117849142Y-112540592D01*
X117838102Y-112476474D01*
X117855645Y-112370475D01*
X117912997Y-112253351D01*
X118021895Y-112119879D01*
X118160831Y-112009564D01*
X118267969Y-111979745D01*
G37*
G36*
X119173292Y-113060296D02*
G01*
X119281883Y-113137456D01*
X119331302Y-113217221D01*
X119349660Y-113336514D01*
X119326649Y-113502408D01*
X119245551Y-113725776D01*
X119307793Y-113798654D01*
X119322488Y-113841486D01*
X119286462Y-113915980D01*
X118989707Y-114392254D01*
X118820788Y-114697340D01*
X118686846Y-114979963D01*
X118995875Y-114730389D01*
X119199145Y-114518039D01*
X119436937Y-114211409D01*
X119570394Y-114003297D01*
X119634260Y-113929567D01*
X119691905Y-113909569D01*
X119760853Y-113931950D01*
X119783496Y-113998107D01*
X119758597Y-114104086D01*
X119652216Y-114310737D01*
X119433470Y-114618462D01*
X119162680Y-114911074D01*
X118834584Y-115189505D01*
X118442603Y-115453794D01*
X118085613Y-116169569D01*
X117889698Y-116515029D01*
X117617094Y-116884427D01*
X117382669Y-117106348D01*
X117178269Y-117220806D01*
X116993327Y-117255390D01*
X116853929Y-117234711D01*
X116749282Y-117176899D01*
X116670621Y-117080451D01*
X116629083Y-116974089D01*
X116614751Y-116851168D01*
X116626230Y-116774537D01*
X116958828Y-116774537D01*
X116977757Y-116847199D01*
X117019940Y-116889766D01*
X117075454Y-116903681D01*
X117196049Y-116869057D01*
X117352432Y-116740042D01*
X117562413Y-116457327D01*
X117793720Y-116072290D01*
X117973657Y-115736200D01*
X117703983Y-115875579D01*
X117448628Y-116061830D01*
X117205818Y-116299485D01*
X117067488Y-116485836D01*
X116978673Y-116675924D01*
X116958828Y-116774537D01*
X116626230Y-116774537D01*
X116651640Y-116604907D01*
X116767198Y-116355798D01*
X116977510Y-116095661D01*
X117308706Y-115819242D01*
X118191644Y-115309996D01*
X118431307Y-114806856D01*
X118176049Y-115053080D01*
X117984252Y-115170975D01*
X117836881Y-115203750D01*
X117744122Y-115186955D01*
X117666431Y-115136985D01*
X117599660Y-115047435D01*
X117560120Y-114943309D01*
X117547148Y-114836775D01*
X117556155Y-114756786D01*
X117915344Y-114756786D01*
X117939768Y-114842576D01*
X118011514Y-114870054D01*
X118128239Y-114825217D01*
X118338800Y-114627337D01*
X118570220Y-114321423D01*
X118632807Y-114230748D01*
X118582127Y-114151674D01*
X118593065Y-114116976D01*
X118636471Y-114065579D01*
X118792581Y-113895316D01*
X118911549Y-113723944D01*
X118978527Y-113590016D01*
X118995508Y-113508705D01*
X118976001Y-113445798D01*
X118919793Y-113425662D01*
X118831620Y-113446800D01*
X118700597Y-113527690D01*
X118506717Y-113704710D01*
X118305994Y-113936365D01*
X118138735Y-114183194D01*
X118003271Y-114446598D01*
X117933334Y-114640226D01*
X117915344Y-114756786D01*
X117556155Y-114756786D01*
X117565464Y-114674107D01*
X117628216Y-114465020D01*
X117749869Y-114197165D01*
X117962165Y-113837945D01*
X118193044Y-113544249D01*
X118442298Y-113308121D01*
X118680784Y-113145081D01*
X118878697Y-113060255D01*
X119046188Y-113034874D01*
X119173292Y-113060296D01*
G37*
G36*
X120630103Y-113866215D02*
G01*
X120862249Y-113647050D01*
X121107293Y-113456803D01*
X121419091Y-113272658D01*
X121577155Y-113230268D01*
X121636420Y-113242065D01*
X121696528Y-113280033D01*
X121745640Y-113342879D01*
X121761253Y-113412534D01*
X121732864Y-113514301D01*
X121612265Y-113702267D01*
X121354235Y-114071349D01*
X121183008Y-114377294D01*
X121077672Y-114621571D01*
X121054170Y-114731446D01*
X121074136Y-114792786D01*
X121133243Y-114812962D01*
X121238107Y-114772695D01*
X121424990Y-114595981D01*
X121746598Y-114161444D01*
X121843719Y-114051466D01*
X121915431Y-114024057D01*
X121975530Y-114046060D01*
X121996642Y-114115648D01*
X121950247Y-114273372D01*
X121735302Y-114630085D01*
X121495294Y-114932034D01*
X121261471Y-115139331D01*
X121084790Y-115234816D01*
X120941818Y-115262369D01*
X120809799Y-115229430D01*
X120721389Y-115132004D01*
X120689992Y-115048736D01*
X120679257Y-114954928D01*
X120700324Y-114757510D01*
X120768911Y-114529558D01*
X120895717Y-114263721D01*
X121186061Y-113771877D01*
X120953297Y-113918663D01*
X120723328Y-114128525D01*
X120494641Y-114412908D01*
X120267223Y-114786164D01*
X120042394Y-115265116D01*
X119978550Y-115373420D01*
X119896764Y-115404335D01*
X119833302Y-115392219D01*
X119783496Y-115356707D01*
X119751206Y-115301542D01*
X119740143Y-115234281D01*
X119775844Y-115074650D01*
X119959351Y-114592533D01*
X120367888Y-113657286D01*
X120718031Y-112939924D01*
X121084337Y-112253349D01*
X121500218Y-111522095D01*
X121662334Y-111281210D01*
X121727349Y-111231629D01*
X121792394Y-111216486D01*
X121852287Y-111232747D01*
X121905967Y-111285790D01*
X121941992Y-111400584D01*
X121919191Y-111503297D01*
X121831167Y-111662229D01*
X121469857Y-112249281D01*
X121097218Y-112914890D01*
X120751128Y-113584958D01*
X120630103Y-113866215D01*
G37*
G36*
X123217245Y-113105399D02*
G01*
X123009083Y-113462674D01*
X122809665Y-113876290D01*
X122644044Y-114294280D01*
X122562937Y-114586604D01*
X122540693Y-114784569D01*
X122550005Y-114860332D01*
X122573971Y-114908522D01*
X122614138Y-114938771D01*
X122674416Y-114949738D01*
X122774038Y-114924430D01*
X122904498Y-114831611D01*
X123080164Y-114632833D01*
X123352495Y-114237465D01*
X123428765Y-114145234D01*
X123501178Y-114119923D01*
X123583304Y-114153811D01*
X123613224Y-114221894D01*
X123557780Y-114379352D01*
X123280138Y-114791285D01*
X123054931Y-115053186D01*
X122862729Y-115212644D01*
X122696549Y-115295784D01*
X122548325Y-115320987D01*
X122437014Y-115303176D01*
X122338996Y-115249975D01*
X122250044Y-115156123D01*
X122196828Y-115036723D01*
X122176466Y-114859063D01*
X122199865Y-114585618D01*
X122276131Y-114265379D01*
X122416434Y-113889113D01*
X122729676Y-113243396D01*
X122606333Y-113249808D01*
X122474747Y-113214087D01*
X122413913Y-113155252D01*
X122395063Y-113086470D01*
X122419379Y-113006887D01*
X122499477Y-112941146D01*
X122755016Y-112895655D01*
X122988878Y-112832458D01*
X123130104Y-112604946D01*
X123376919Y-112254823D01*
X123586357Y-111989515D01*
X123672527Y-111920048D01*
X123736872Y-111901587D01*
X123782816Y-111913246D01*
X123833043Y-111953183D01*
X123866353Y-112003072D01*
X123876396Y-112049659D01*
X123842602Y-112158287D01*
X123683139Y-112411749D01*
X123507894Y-112669731D01*
X123843485Y-112586825D01*
X124030574Y-112565928D01*
X124145544Y-112587101D01*
X124206403Y-112641659D01*
X124228106Y-112735371D01*
X124210367Y-112810179D01*
X124158191Y-112861767D01*
X123976230Y-112898098D01*
X123875592Y-112915166D01*
X123463015Y-113027852D01*
X123217245Y-113105399D01*
G37*
G36*
X124133767Y-116063485D02*
G01*
X127650864Y-116063485D01*
X127650864Y-116415195D01*
X124133767Y-116415195D01*
X124133767Y-116063485D01*
G37*
G36*
X128155225Y-115295036D02*
G01*
X128761053Y-114225304D01*
X129329916Y-113286774D01*
X129863704Y-112468536D01*
X130265309Y-111900639D01*
X130741757Y-111275409D01*
X130885902Y-111118623D01*
X130997841Y-111043433D01*
X131087666Y-111022313D01*
X131145038Y-111034943D01*
X131194217Y-111073909D01*
X131223831Y-111151456D01*
X131191724Y-111253001D01*
X131047366Y-111461645D01*
X130518767Y-112162450D01*
X129921136Y-113039969D01*
X129247330Y-114120342D01*
X128489838Y-115431507D01*
X128294444Y-115739863D01*
X128213316Y-115807101D01*
X128115841Y-115829012D01*
X127972231Y-115795891D01*
X127865362Y-115696734D01*
X127789114Y-115507845D01*
X127757720Y-115180853D01*
X127783697Y-114770646D01*
X127877391Y-114161483D01*
X128065466Y-113294382D01*
X128252615Y-112594951D01*
X128459517Y-111965860D01*
X128684316Y-111401500D01*
X128862919Y-111027503D01*
X128950395Y-110950177D01*
X129061977Y-110924616D01*
X129137571Y-110937902D01*
X129192036Y-110975296D01*
X129224803Y-111020306D01*
X129235695Y-111074520D01*
X129194173Y-111259228D01*
X129064114Y-111566669D01*
X128729343Y-112443244D01*
X128460223Y-113317890D01*
X128274826Y-114087176D01*
X128178019Y-114682712D01*
X128149730Y-115135668D01*
X128155225Y-115295036D01*
G37*
G36*
X131374923Y-113205399D02*
G01*
X131454030Y-113248281D01*
X131523296Y-113334440D01*
X131546537Y-113444286D01*
X131510146Y-113633148D01*
X131377704Y-113894914D01*
X131185290Y-114146386D01*
X130951793Y-114355338D01*
X130672682Y-114524633D01*
X130340893Y-114654204D01*
X130340893Y-114707327D01*
X130350097Y-114774278D01*
X130376614Y-114829754D01*
X130481190Y-114917572D01*
X130648639Y-114949738D01*
X130838367Y-114919014D01*
X131057563Y-114816784D01*
X131317367Y-114620086D01*
X131628359Y-114297304D01*
X131732204Y-114204600D01*
X131803297Y-114181289D01*
X131842116Y-114190964D01*
X131879013Y-114222505D01*
X131901605Y-114279596D01*
X131878560Y-114364979D01*
X131784977Y-114507414D01*
X131570656Y-114737552D01*
X131302248Y-114966404D01*
X131022026Y-115144216D01*
X130730315Y-115264871D01*
X130477975Y-115301448D01*
X130312671Y-115280292D01*
X130178241Y-115220108D01*
X130067341Y-115120403D01*
X129993244Y-114978868D01*
X129965981Y-114779989D01*
X129996920Y-114505083D01*
X130047828Y-114356838D01*
X130423936Y-114356838D01*
X130627364Y-114271807D01*
X130776256Y-114180373D01*
X130991615Y-113981154D01*
X131152696Y-113763939D01*
X131191321Y-113684479D01*
X131202460Y-113621362D01*
X131188352Y-113576861D01*
X131147200Y-113562438D01*
X131057524Y-113587973D01*
X130900820Y-113694330D01*
X130723972Y-113865757D01*
X130564858Y-114084062D01*
X130423936Y-114356838D01*
X130047828Y-114356838D01*
X130092115Y-114227873D01*
X130259417Y-113942568D01*
X130511863Y-113644565D01*
X130755968Y-113422710D01*
X130961457Y-113285453D01*
X131135979Y-113213112D01*
X131287334Y-113191189D01*
X131374923Y-113205399D01*
G37*
G36*
X132635555Y-114137325D02*
G01*
X132957360Y-113822312D01*
X133371947Y-113475427D01*
X133707781Y-113244617D01*
X133825628Y-113191189D01*
X133877351Y-113207787D01*
X133935843Y-113268126D01*
X133968510Y-113346589D01*
X133943457Y-113410159D01*
X133835093Y-113516643D01*
X133611787Y-113712059D01*
X133514389Y-113838258D01*
X133490100Y-113919338D01*
X133508966Y-113970056D01*
X133569173Y-113988032D01*
X133731398Y-113943814D01*
X134069260Y-113747147D01*
X134177033Y-113704710D01*
X134238704Y-113735240D01*
X134272287Y-113807903D01*
X134252137Y-113872497D01*
X134170450Y-113974294D01*
X133981333Y-114133661D01*
X133770741Y-114267555D01*
X133580654Y-114340655D01*
X133405225Y-114363555D01*
X133297521Y-114348593D01*
X133198535Y-114303715D01*
X133137888Y-114237229D01*
X133115492Y-114124808D01*
X133126935Y-114040533D01*
X133160372Y-113967882D01*
X132927422Y-114174773D01*
X132569304Y-114591311D01*
X132366517Y-114897528D01*
X132150428Y-115295341D01*
X132053002Y-115421597D01*
X131946790Y-115457763D01*
X131868750Y-115442318D01*
X131826213Y-115401495D01*
X131810625Y-115329230D01*
X131843673Y-115169249D01*
X132009377Y-114707632D01*
X132224223Y-114213781D01*
X132429815Y-113833273D01*
X132625785Y-113547173D01*
X132772433Y-113385424D01*
X132881440Y-113309614D01*
X132964672Y-113288886D01*
X133052600Y-113318196D01*
X133089028Y-113360432D01*
X133100838Y-113411313D01*
X133086672Y-113468393D01*
X133030312Y-113560912D01*
X132849267Y-113789890D01*
X132713154Y-113987314D01*
X132635555Y-114137325D01*
G37*
G36*
X135992368Y-112567149D02*
G01*
X135754005Y-112741355D01*
X135518842Y-112880390D01*
X135214656Y-113023644D01*
X135087143Y-113054413D01*
X135024360Y-113036768D01*
X134984569Y-112983178D01*
X134968074Y-112873674D01*
X134997078Y-112764375D01*
X135038402Y-112727047D01*
X135131412Y-112683775D01*
X135468258Y-112517168D01*
X136024730Y-112187351D01*
X136279657Y-112050274D01*
X136405749Y-112018824D01*
X136476101Y-112036370D01*
X136543135Y-112093623D01*
X136573157Y-112146297D01*
X136582825Y-112201395D01*
X136557651Y-112299206D01*
X136448186Y-112494487D01*
X135803066Y-113576729D01*
X135362361Y-114395037D01*
X135082563Y-114998586D01*
X134948229Y-115277329D01*
X134874971Y-115352786D01*
X134810538Y-115373499D01*
X134746261Y-115354986D01*
X134679562Y-115291067D01*
X134643536Y-115189706D01*
X134673165Y-115053477D01*
X134814582Y-114701902D01*
X135170490Y-113969103D01*
X135657408Y-113073894D01*
X135992368Y-112567149D01*
G37*
G36*
X136833784Y-115047435D02*
G01*
X136906222Y-115064881D01*
X136967812Y-115119487D01*
X136994609Y-115170706D01*
X137004144Y-115237334D01*
X136982876Y-115399066D01*
X136914384Y-115578053D01*
X136838730Y-115690913D01*
X136756251Y-115750979D01*
X136663120Y-115770394D01*
X136570072Y-115749516D01*
X136516627Y-115691687D01*
X136496118Y-115583853D01*
X136522542Y-115407084D01*
X136606944Y-115218710D01*
X136722071Y-115084843D01*
X136833784Y-115047435D01*
G37*
G36*
X140039548Y-112015442D02*
G01*
X140094145Y-112088349D01*
X140116713Y-112236810D01*
X140276432Y-112331164D01*
X140389960Y-112470062D01*
X140457354Y-112646634D01*
X140482162Y-112882222D01*
X140448834Y-113251207D01*
X140344890Y-113642233D01*
X140161421Y-114061733D01*
X139885904Y-114515901D01*
X139587362Y-114902901D01*
X139318886Y-115168009D01*
X139075839Y-115336622D01*
X138852396Y-115428747D01*
X138641487Y-115457763D01*
X138460604Y-115424143D01*
X138313691Y-115324806D01*
X138192080Y-115146659D01*
X138121211Y-114931981D01*
X138095604Y-114661531D01*
X138099433Y-114616652D01*
X138525166Y-114616652D01*
X138539400Y-114791762D01*
X138575541Y-114907606D01*
X138640980Y-114999785D01*
X138715347Y-115050260D01*
X138802382Y-115066974D01*
X138944859Y-115036490D01*
X139124988Y-114928579D01*
X139358645Y-114706411D01*
X139579997Y-114423204D01*
X139770795Y-114096247D01*
X139930478Y-113720280D01*
X140054951Y-113291820D01*
X140090457Y-112975034D01*
X140058070Y-112779296D01*
X139963146Y-112617219D01*
X139863593Y-112538386D01*
X139734473Y-112507309D01*
X139666391Y-112507309D01*
X139416002Y-112737703D01*
X139182036Y-113003085D01*
X138964192Y-113306289D01*
X138763643Y-113659649D01*
X138628182Y-113993192D01*
X138550386Y-114310821D01*
X138525166Y-114616652D01*
X138099433Y-114616652D01*
X138123691Y-114332353D01*
X138210919Y-113985743D01*
X138363984Y-113616647D01*
X138592333Y-113220193D01*
X138882772Y-112838787D01*
X139287204Y-112418466D01*
X139615369Y-112144655D01*
X139824084Y-112022252D01*
X139953071Y-111991346D01*
X140039548Y-112015442D01*
G37*
D11*
X171261905Y-40457419D02*
X171261905Y-39457419D01*
X171261905Y-39457419D02*
X171642857Y-39457419D01*
X171642857Y-39457419D02*
X171738095Y-39505038D01*
X171738095Y-39505038D02*
X171785714Y-39552657D01*
X171785714Y-39552657D02*
X171833333Y-39647895D01*
X171833333Y-39647895D02*
X171833333Y-39790752D01*
X171833333Y-39790752D02*
X171785714Y-39885990D01*
X171785714Y-39885990D02*
X171738095Y-39933609D01*
X171738095Y-39933609D02*
X171642857Y-39981228D01*
X171642857Y-39981228D02*
X171261905Y-39981228D01*
X172785714Y-40457419D02*
X172214286Y-40457419D01*
X172500000Y-40457419D02*
X172500000Y-39457419D01*
X172500000Y-39457419D02*
X172404762Y-39600276D01*
X172404762Y-39600276D02*
X172309524Y-39695514D01*
X172309524Y-39695514D02*
X172214286Y-39743133D01*
D12*
X175513810Y-38824819D02*
X175513810Y-38158152D01*
X175513810Y-37824819D02*
X175466191Y-37872438D01*
X175466191Y-37872438D02*
X175513810Y-37920057D01*
X175513810Y-37920057D02*
X175561429Y-37872438D01*
X175561429Y-37872438D02*
X175513810Y-37824819D01*
X175513810Y-37824819D02*
X175513810Y-37920057D01*
X175942381Y-37920057D02*
X175990000Y-37872438D01*
X175990000Y-37872438D02*
X176085238Y-37824819D01*
X176085238Y-37824819D02*
X176323333Y-37824819D01*
X176323333Y-37824819D02*
X176418571Y-37872438D01*
X176418571Y-37872438D02*
X176466190Y-37920057D01*
X176466190Y-37920057D02*
X176513809Y-38015295D01*
X176513809Y-38015295D02*
X176513809Y-38110533D01*
X176513809Y-38110533D02*
X176466190Y-38253390D01*
X176466190Y-38253390D02*
X175894762Y-38824819D01*
X175894762Y-38824819D02*
X176513809Y-38824819D01*
X177513809Y-38729580D02*
X177466190Y-38777200D01*
X177466190Y-38777200D02*
X177323333Y-38824819D01*
X177323333Y-38824819D02*
X177228095Y-38824819D01*
X177228095Y-38824819D02*
X177085238Y-38777200D01*
X177085238Y-38777200D02*
X176990000Y-38681961D01*
X176990000Y-38681961D02*
X176942381Y-38586723D01*
X176942381Y-38586723D02*
X176894762Y-38396247D01*
X176894762Y-38396247D02*
X176894762Y-38253390D01*
X176894762Y-38253390D02*
X176942381Y-38062914D01*
X176942381Y-38062914D02*
X176990000Y-37967676D01*
X176990000Y-37967676D02*
X177085238Y-37872438D01*
X177085238Y-37872438D02*
X177228095Y-37824819D01*
X177228095Y-37824819D02*
X177323333Y-37824819D01*
X177323333Y-37824819D02*
X177466190Y-37872438D01*
X177466190Y-37872438D02*
X177513809Y-37920057D01*
D11*
X170059466Y-34665219D02*
X170059466Y-35379504D01*
X170059466Y-35379504D02*
X170011847Y-35522361D01*
X170011847Y-35522361D02*
X169916609Y-35617600D01*
X169916609Y-35617600D02*
X169773752Y-35665219D01*
X169773752Y-35665219D02*
X169678514Y-35665219D01*
X170535657Y-35665219D02*
X170535657Y-34665219D01*
X170535657Y-34665219D02*
X170916609Y-34665219D01*
X170916609Y-34665219D02*
X171011847Y-34712838D01*
X171011847Y-34712838D02*
X171059466Y-34760457D01*
X171059466Y-34760457D02*
X171107085Y-34855695D01*
X171107085Y-34855695D02*
X171107085Y-34998552D01*
X171107085Y-34998552D02*
X171059466Y-35093790D01*
X171059466Y-35093790D02*
X171011847Y-35141409D01*
X171011847Y-35141409D02*
X170916609Y-35189028D01*
X170916609Y-35189028D02*
X170535657Y-35189028D01*
X172059466Y-35665219D02*
X171488038Y-35665219D01*
X171773752Y-35665219D02*
X171773752Y-34665219D01*
X171773752Y-34665219D02*
X171678514Y-34808076D01*
X171678514Y-34808076D02*
X171583276Y-34903314D01*
X171583276Y-34903314D02*
X171488038Y-34950933D01*
X175251905Y-36457219D02*
X175251905Y-35457219D01*
X175251905Y-35457219D02*
X175632857Y-35457219D01*
X175632857Y-35457219D02*
X175728095Y-35504838D01*
X175728095Y-35504838D02*
X175775714Y-35552457D01*
X175775714Y-35552457D02*
X175823333Y-35647695D01*
X175823333Y-35647695D02*
X175823333Y-35790552D01*
X175823333Y-35790552D02*
X175775714Y-35885790D01*
X175775714Y-35885790D02*
X175728095Y-35933409D01*
X175728095Y-35933409D02*
X175632857Y-35981028D01*
X175632857Y-35981028D02*
X175251905Y-35981028D01*
X176204286Y-35552457D02*
X176251905Y-35504838D01*
X176251905Y-35504838D02*
X176347143Y-35457219D01*
X176347143Y-35457219D02*
X176585238Y-35457219D01*
X176585238Y-35457219D02*
X176680476Y-35504838D01*
X176680476Y-35504838D02*
X176728095Y-35552457D01*
X176728095Y-35552457D02*
X176775714Y-35647695D01*
X176775714Y-35647695D02*
X176775714Y-35742933D01*
X176775714Y-35742933D02*
X176728095Y-35885790D01*
X176728095Y-35885790D02*
X176156667Y-36457219D01*
X176156667Y-36457219D02*
X176775714Y-36457219D01*
D12*
X175354819Y-46462380D02*
X175354819Y-46271904D01*
X175354819Y-46271904D02*
X175402438Y-46176666D01*
X175402438Y-46176666D02*
X175497676Y-46081428D01*
X175497676Y-46081428D02*
X175688152Y-46033809D01*
X175688152Y-46033809D02*
X176021485Y-46033809D01*
X176021485Y-46033809D02*
X176211961Y-46081428D01*
X176211961Y-46081428D02*
X176307200Y-46176666D01*
X176307200Y-46176666D02*
X176354819Y-46271904D01*
X176354819Y-46271904D02*
X176354819Y-46462380D01*
X176354819Y-46462380D02*
X176307200Y-46557618D01*
X176307200Y-46557618D02*
X176211961Y-46652856D01*
X176211961Y-46652856D02*
X176021485Y-46700475D01*
X176021485Y-46700475D02*
X175688152Y-46700475D01*
X175688152Y-46700475D02*
X175497676Y-46652856D01*
X175497676Y-46652856D02*
X175402438Y-46557618D01*
X175402438Y-46557618D02*
X175354819Y-46462380D01*
X176354819Y-45129047D02*
X176354819Y-45605237D01*
X176354819Y-45605237D02*
X175354819Y-45605237D01*
X175831009Y-44795713D02*
X175831009Y-44462380D01*
X176354819Y-44319523D02*
X176354819Y-44795713D01*
X176354819Y-44795713D02*
X175354819Y-44795713D01*
X175354819Y-44795713D02*
X175354819Y-44319523D01*
X176354819Y-43890951D02*
X175354819Y-43890951D01*
X175354819Y-43890951D02*
X175354819Y-43652856D01*
X175354819Y-43652856D02*
X175402438Y-43509999D01*
X175402438Y-43509999D02*
X175497676Y-43414761D01*
X175497676Y-43414761D02*
X175592914Y-43367142D01*
X175592914Y-43367142D02*
X175783390Y-43319523D01*
X175783390Y-43319523D02*
X175926247Y-43319523D01*
X175926247Y-43319523D02*
X176116723Y-43367142D01*
X176116723Y-43367142D02*
X176211961Y-43414761D01*
X176211961Y-43414761D02*
X176307200Y-43509999D01*
X176307200Y-43509999D02*
X176354819Y-43652856D01*
X176354819Y-43652856D02*
X176354819Y-43890951D01*
D11*
X82666666Y-93957419D02*
X82666666Y-94671704D01*
X82666666Y-94671704D02*
X82619047Y-94814561D01*
X82619047Y-94814561D02*
X82523809Y-94909800D01*
X82523809Y-94909800D02*
X82380952Y-94957419D01*
X82380952Y-94957419D02*
X82285714Y-94957419D01*
X83095238Y-94052657D02*
X83142857Y-94005038D01*
X83142857Y-94005038D02*
X83238095Y-93957419D01*
X83238095Y-93957419D02*
X83476190Y-93957419D01*
X83476190Y-93957419D02*
X83571428Y-94005038D01*
X83571428Y-94005038D02*
X83619047Y-94052657D01*
X83619047Y-94052657D02*
X83666666Y-94147895D01*
X83666666Y-94147895D02*
X83666666Y-94243133D01*
X83666666Y-94243133D02*
X83619047Y-94385990D01*
X83619047Y-94385990D02*
X83047619Y-94957419D01*
X83047619Y-94957419D02*
X83666666Y-94957419D01*
X87372419Y-98601353D02*
X87372419Y-97982306D01*
X87372419Y-97982306D02*
X87753371Y-98315639D01*
X87753371Y-98315639D02*
X87753371Y-98172782D01*
X87753371Y-98172782D02*
X87800990Y-98077544D01*
X87800990Y-98077544D02*
X87848609Y-98029925D01*
X87848609Y-98029925D02*
X87943847Y-97982306D01*
X87943847Y-97982306D02*
X88181942Y-97982306D01*
X88181942Y-97982306D02*
X88277180Y-98029925D01*
X88277180Y-98029925D02*
X88324800Y-98077544D01*
X88324800Y-98077544D02*
X88372419Y-98172782D01*
X88372419Y-98172782D02*
X88372419Y-98458496D01*
X88372419Y-98458496D02*
X88324800Y-98553734D01*
X88324800Y-98553734D02*
X88277180Y-98601353D01*
X87705752Y-95577544D02*
X88372419Y-95577544D01*
X87324800Y-95815639D02*
X88039085Y-96053734D01*
X88039085Y-96053734D02*
X88039085Y-95434687D01*
X88372419Y-102982306D02*
X88372419Y-103553734D01*
X88372419Y-103268020D02*
X87372419Y-103268020D01*
X87372419Y-103268020D02*
X87515276Y-103363258D01*
X87515276Y-103363258D02*
X87610514Y-103458496D01*
X87610514Y-103458496D02*
X87658133Y-103553734D01*
X87467657Y-101053734D02*
X87420038Y-101006115D01*
X87420038Y-101006115D02*
X87372419Y-100910877D01*
X87372419Y-100910877D02*
X87372419Y-100672782D01*
X87372419Y-100672782D02*
X87420038Y-100577544D01*
X87420038Y-100577544D02*
X87467657Y-100529925D01*
X87467657Y-100529925D02*
X87562895Y-100482306D01*
X87562895Y-100482306D02*
X87658133Y-100482306D01*
X87658133Y-100482306D02*
X87800990Y-100529925D01*
X87800990Y-100529925D02*
X88372419Y-101101353D01*
X88372419Y-101101353D02*
X88372419Y-100482306D01*
X87372419Y-90577544D02*
X87372419Y-90768020D01*
X87372419Y-90768020D02*
X87420038Y-90863258D01*
X87420038Y-90863258D02*
X87467657Y-90910877D01*
X87467657Y-90910877D02*
X87610514Y-91006115D01*
X87610514Y-91006115D02*
X87800990Y-91053734D01*
X87800990Y-91053734D02*
X88181942Y-91053734D01*
X88181942Y-91053734D02*
X88277180Y-91006115D01*
X88277180Y-91006115D02*
X88324800Y-90958496D01*
X88324800Y-90958496D02*
X88372419Y-90863258D01*
X88372419Y-90863258D02*
X88372419Y-90672782D01*
X88372419Y-90672782D02*
X88324800Y-90577544D01*
X88324800Y-90577544D02*
X88277180Y-90529925D01*
X88277180Y-90529925D02*
X88181942Y-90482306D01*
X88181942Y-90482306D02*
X87943847Y-90482306D01*
X87943847Y-90482306D02*
X87848609Y-90529925D01*
X87848609Y-90529925D02*
X87800990Y-90577544D01*
X87800990Y-90577544D02*
X87753371Y-90672782D01*
X87753371Y-90672782D02*
X87753371Y-90863258D01*
X87753371Y-90863258D02*
X87800990Y-90958496D01*
X87800990Y-90958496D02*
X87848609Y-91006115D01*
X87848609Y-91006115D02*
X87943847Y-91053734D01*
X87372419Y-88601353D02*
X87372419Y-87934687D01*
X87372419Y-87934687D02*
X88372419Y-88363258D01*
X87372419Y-93029925D02*
X87372419Y-93506115D01*
X87372419Y-93506115D02*
X87848609Y-93553734D01*
X87848609Y-93553734D02*
X87800990Y-93506115D01*
X87800990Y-93506115D02*
X87753371Y-93410877D01*
X87753371Y-93410877D02*
X87753371Y-93172782D01*
X87753371Y-93172782D02*
X87800990Y-93077544D01*
X87800990Y-93077544D02*
X87848609Y-93029925D01*
X87848609Y-93029925D02*
X87943847Y-92982306D01*
X87943847Y-92982306D02*
X88181942Y-92982306D01*
X88181942Y-92982306D02*
X88277180Y-93029925D01*
X88277180Y-93029925D02*
X88324800Y-93077544D01*
X88324800Y-93077544D02*
X88372419Y-93172782D01*
X88372419Y-93172782D02*
X88372419Y-93410877D01*
X88372419Y-93410877D02*
X88324800Y-93506115D01*
X88324800Y-93506115D02*
X88277180Y-93553734D01*
X87800990Y-85863258D02*
X87753371Y-85958496D01*
X87753371Y-85958496D02*
X87705752Y-86006115D01*
X87705752Y-86006115D02*
X87610514Y-86053734D01*
X87610514Y-86053734D02*
X87562895Y-86053734D01*
X87562895Y-86053734D02*
X87467657Y-86006115D01*
X87467657Y-86006115D02*
X87420038Y-85958496D01*
X87420038Y-85958496D02*
X87372419Y-85863258D01*
X87372419Y-85863258D02*
X87372419Y-85672782D01*
X87372419Y-85672782D02*
X87420038Y-85577544D01*
X87420038Y-85577544D02*
X87467657Y-85529925D01*
X87467657Y-85529925D02*
X87562895Y-85482306D01*
X87562895Y-85482306D02*
X87610514Y-85482306D01*
X87610514Y-85482306D02*
X87705752Y-85529925D01*
X87705752Y-85529925D02*
X87753371Y-85577544D01*
X87753371Y-85577544D02*
X87800990Y-85672782D01*
X87800990Y-85672782D02*
X87800990Y-85863258D01*
X87800990Y-85863258D02*
X87848609Y-85958496D01*
X87848609Y-85958496D02*
X87896228Y-86006115D01*
X87896228Y-86006115D02*
X87991466Y-86053734D01*
X87991466Y-86053734D02*
X88181942Y-86053734D01*
X88181942Y-86053734D02*
X88277180Y-86006115D01*
X88277180Y-86006115D02*
X88324800Y-85958496D01*
X88324800Y-85958496D02*
X88372419Y-85863258D01*
X88372419Y-85863258D02*
X88372419Y-85672782D01*
X88372419Y-85672782D02*
X88324800Y-85577544D01*
X88324800Y-85577544D02*
X88277180Y-85529925D01*
X88277180Y-85529925D02*
X88181942Y-85482306D01*
X88181942Y-85482306D02*
X87991466Y-85482306D01*
X87991466Y-85482306D02*
X87896228Y-85529925D01*
X87896228Y-85529925D02*
X87848609Y-85577544D01*
X87848609Y-85577544D02*
X87800990Y-85672782D01*
D12*
X156420618Y-37954819D02*
X156087285Y-37478628D01*
X155849190Y-37954819D02*
X155849190Y-36954819D01*
X155849190Y-36954819D02*
X156230142Y-36954819D01*
X156230142Y-36954819D02*
X156325380Y-37002438D01*
X156325380Y-37002438D02*
X156372999Y-37050057D01*
X156372999Y-37050057D02*
X156420618Y-37145295D01*
X156420618Y-37145295D02*
X156420618Y-37288152D01*
X156420618Y-37288152D02*
X156372999Y-37383390D01*
X156372999Y-37383390D02*
X156325380Y-37431009D01*
X156325380Y-37431009D02*
X156230142Y-37478628D01*
X156230142Y-37478628D02*
X155849190Y-37478628D01*
X156849190Y-37431009D02*
X157182523Y-37431009D01*
X157325380Y-37954819D02*
X156849190Y-37954819D01*
X156849190Y-37954819D02*
X156849190Y-36954819D01*
X156849190Y-36954819D02*
X157325380Y-36954819D01*
X157706333Y-37907200D02*
X157849190Y-37954819D01*
X157849190Y-37954819D02*
X158087285Y-37954819D01*
X158087285Y-37954819D02*
X158182523Y-37907200D01*
X158182523Y-37907200D02*
X158230142Y-37859580D01*
X158230142Y-37859580D02*
X158277761Y-37764342D01*
X158277761Y-37764342D02*
X158277761Y-37669104D01*
X158277761Y-37669104D02*
X158230142Y-37573866D01*
X158230142Y-37573866D02*
X158182523Y-37526247D01*
X158182523Y-37526247D02*
X158087285Y-37478628D01*
X158087285Y-37478628D02*
X157896809Y-37431009D01*
X157896809Y-37431009D02*
X157801571Y-37383390D01*
X157801571Y-37383390D02*
X157753952Y-37335771D01*
X157753952Y-37335771D02*
X157706333Y-37240533D01*
X157706333Y-37240533D02*
X157706333Y-37145295D01*
X157706333Y-37145295D02*
X157753952Y-37050057D01*
X157753952Y-37050057D02*
X157801571Y-37002438D01*
X157801571Y-37002438D02*
X157896809Y-36954819D01*
X157896809Y-36954819D02*
X158134904Y-36954819D01*
X158134904Y-36954819D02*
X158277761Y-37002438D01*
X158706333Y-37431009D02*
X159039666Y-37431009D01*
X159182523Y-37954819D02*
X158706333Y-37954819D01*
X158706333Y-37954819D02*
X158706333Y-36954819D01*
X158706333Y-36954819D02*
X159182523Y-36954819D01*
X159468238Y-36954819D02*
X160039666Y-36954819D01*
X159753952Y-37954819D02*
X159753952Y-36954819D01*
X163321345Y-39963019D02*
X163892773Y-39963019D01*
X163607059Y-40963019D02*
X163607059Y-39963019D01*
X164797535Y-40963019D02*
X164464202Y-40486828D01*
X164226107Y-40963019D02*
X164226107Y-39963019D01*
X164226107Y-39963019D02*
X164607059Y-39963019D01*
X164607059Y-39963019D02*
X164702297Y-40010638D01*
X164702297Y-40010638D02*
X164749916Y-40058257D01*
X164749916Y-40058257D02*
X164797535Y-40153495D01*
X164797535Y-40153495D02*
X164797535Y-40296352D01*
X164797535Y-40296352D02*
X164749916Y-40391590D01*
X164749916Y-40391590D02*
X164702297Y-40439209D01*
X164702297Y-40439209D02*
X164607059Y-40486828D01*
X164607059Y-40486828D02*
X164226107Y-40486828D01*
X165797535Y-40963019D02*
X165464202Y-40486828D01*
X165226107Y-40963019D02*
X165226107Y-39963019D01*
X165226107Y-39963019D02*
X165607059Y-39963019D01*
X165607059Y-39963019D02*
X165702297Y-40010638D01*
X165702297Y-40010638D02*
X165749916Y-40058257D01*
X165749916Y-40058257D02*
X165797535Y-40153495D01*
X165797535Y-40153495D02*
X165797535Y-40296352D01*
X165797535Y-40296352D02*
X165749916Y-40391590D01*
X165749916Y-40391590D02*
X165702297Y-40439209D01*
X165702297Y-40439209D02*
X165607059Y-40486828D01*
X165607059Y-40486828D02*
X165226107Y-40486828D01*
X166178488Y-40915400D02*
X166321345Y-40963019D01*
X166321345Y-40963019D02*
X166559440Y-40963019D01*
X166559440Y-40963019D02*
X166654678Y-40915400D01*
X166654678Y-40915400D02*
X166702297Y-40867780D01*
X166702297Y-40867780D02*
X166749916Y-40772542D01*
X166749916Y-40772542D02*
X166749916Y-40677304D01*
X166749916Y-40677304D02*
X166702297Y-40582066D01*
X166702297Y-40582066D02*
X166654678Y-40534447D01*
X166654678Y-40534447D02*
X166559440Y-40486828D01*
X166559440Y-40486828D02*
X166368964Y-40439209D01*
X166368964Y-40439209D02*
X166273726Y-40391590D01*
X166273726Y-40391590D02*
X166226107Y-40343971D01*
X166226107Y-40343971D02*
X166178488Y-40248733D01*
X166178488Y-40248733D02*
X166178488Y-40153495D01*
X166178488Y-40153495D02*
X166226107Y-40058257D01*
X166226107Y-40058257D02*
X166273726Y-40010638D01*
X166273726Y-40010638D02*
X166368964Y-39963019D01*
X166368964Y-39963019D02*
X166607059Y-39963019D01*
X166607059Y-39963019D02*
X166749916Y-40010638D01*
%TO.C,P1*%
D11*
X172990000Y-38370000D02*
X174990000Y-38370000D01*
X174990000Y-40370000D01*
X172990000Y-40370000D01*
X172990000Y-38370000D01*
%TO.C,JP1*%
X169492800Y-36007800D02*
X172492800Y-36007800D01*
X172492800Y-38007800D01*
X169492800Y-38007800D01*
X169492800Y-36007800D01*
%TO.C,P2*%
X172990000Y-35499800D02*
X174990000Y-35499800D01*
X174990000Y-37499800D01*
X172990000Y-37499800D01*
X172990000Y-35499800D01*
D12*
%TO.C,OL1*%
X176730000Y-39920000D02*
X179270000Y-39920000D01*
X176730000Y-50080000D02*
X176730000Y-39920000D01*
X179270000Y-50080000D02*
X176730000Y-50080000D01*
X179270000Y-50080000D02*
X179270000Y-39920000D01*
%TO.C,J2*%
D11*
X84000000Y-104310000D02*
X87000000Y-104310000D01*
X87000000Y-84310000D01*
X84000000Y-84310000D01*
X84000000Y-104310000D01*
D12*
%TO.C,SW00*%
X155000000Y-35750000D02*
X155000000Y-36000000D01*
X155000000Y-39000000D02*
X155000000Y-39250000D01*
X155000000Y-39250000D02*
X161000000Y-39250000D01*
X161000000Y-35750000D02*
X155000000Y-35750000D01*
X161000000Y-36000000D02*
X161000000Y-35750000D01*
X161000000Y-39250000D02*
X161000000Y-39000000D01*
%TO.C,J1*%
X163007750Y-34094700D02*
X163007750Y-46094700D01*
X163007750Y-46094700D02*
X169007750Y-46094700D01*
X169007750Y-34094700D02*
X163007750Y-34094700D01*
X169007750Y-46094700D02*
X169007750Y-34094700D01*
%TD*%
D13*
%TO.C,U1*%
X209280000Y-37500000D03*
X206740000Y-37500000D03*
X204200000Y-37500000D03*
X201660000Y-37500000D03*
X199120000Y-37500000D03*
X196580000Y-37500000D03*
X194040000Y-37500000D03*
X191500000Y-37500000D03*
X188960000Y-37500000D03*
X186420000Y-37500000D03*
X183880000Y-37500000D03*
X181340000Y-37500000D03*
X181340000Y-52740000D03*
X183880000Y-52740000D03*
X186420000Y-52740000D03*
X188960000Y-52740000D03*
X191500000Y-52740000D03*
X194040000Y-52740000D03*
X196580000Y-52740000D03*
X199120000Y-52740000D03*
X201660000Y-52740000D03*
X204200000Y-52740000D03*
X206740000Y-52740000D03*
X209280000Y-52740000D03*
%TD*%
D14*
%TO.C,OL1*%
X178000000Y-48810000D03*
X178000000Y-46270000D03*
X178000000Y-43730000D03*
X178000000Y-41190000D03*
%TD*%
%LPC*%
D15*
%TO.C,P1*%
X173990000Y-39370000D03*
%TD*%
D16*
%TO.C,JP1*%
X170492800Y-37007800D03*
X171492800Y-37007800D03*
%TD*%
D17*
%TO.C,Ref\u002A\u002A*%
X147000000Y-115500000D03*
%TD*%
%TO.C,Ref\u002A\u002A*%
X109000000Y-58500000D03*
%TD*%
%TO.C,Ref\u002A\u002A*%
X83000000Y-158000000D03*
%TD*%
D13*
%TO.C,U1*%
X209280000Y-37500000D03*
X206740000Y-37500000D03*
X204200000Y-37500000D03*
X201660000Y-37500000D03*
X199120000Y-37500000D03*
X196580000Y-37500000D03*
X194040000Y-37500000D03*
X191500000Y-37500000D03*
X188960000Y-37500000D03*
X186420000Y-37500000D03*
X183880000Y-37500000D03*
X181340000Y-37500000D03*
X181340000Y-52740000D03*
X183880000Y-52740000D03*
X186420000Y-52740000D03*
X188960000Y-52740000D03*
X191500000Y-52740000D03*
X194040000Y-52740000D03*
X196580000Y-52740000D03*
X199120000Y-52740000D03*
X201660000Y-52740000D03*
X204200000Y-52740000D03*
X206740000Y-52740000D03*
X209280000Y-52740000D03*
%TD*%
D17*
%TO.C,Ref\u002A\u002A*%
X211000000Y-57000000D03*
%TD*%
D15*
%TO.C,P2*%
X173990000Y-36499800D03*
%TD*%
D17*
%TO.C,Ref\u002A\u002A*%
X191500000Y-122000000D03*
%TD*%
D14*
%TO.C,OL1*%
X178000000Y-48810000D03*
X178000000Y-46270000D03*
X178000000Y-43730000D03*
X178000000Y-41190000D03*
%TD*%
D17*
%TO.C,Ref\u002A\u002A*%
X80000000Y-90000000D03*
%TD*%
%TO.C,Ref\u002A\u002A*%
X150000000Y-37500000D03*
%TD*%
D15*
%TO.C,J2*%
X85500000Y-103200000D03*
X85500000Y-100660000D03*
X85500000Y-98120000D03*
X85500000Y-95580000D03*
X85500000Y-93040000D03*
X85500000Y-90500000D03*
X85500000Y-87960000D03*
X85500000Y-85420000D03*
%TD*%
D18*
%TO.C,SW38*%
X208000000Y-106900000D03*
D19*
X208000000Y-101000000D03*
D18*
X203000000Y-104700000D03*
%TD*%
%TO.C,SW32*%
X190000000Y-81400000D03*
D19*
X190000000Y-75500000D03*
D18*
X185000000Y-79200000D03*
%TD*%
D20*
%TO.C,SW2*%
X71500000Y-147500000D03*
X74500000Y-147500000D03*
%TD*%
D18*
%TO.C,SW13*%
X118000000Y-89900000D03*
D19*
X118000000Y-84000000D03*
D18*
X113000000Y-87700000D03*
%TD*%
%TO.C,SW20*%
X91000000Y-140900000D03*
D19*
X91000000Y-135000000D03*
D18*
X86000000Y-138700000D03*
%TD*%
%TO.C,SW27*%
X172000000Y-81400000D03*
D19*
X172000000Y-75500000D03*
D18*
X167000000Y-79200000D03*
%TD*%
%TO.C,SW40*%
X118000000Y-152900000D03*
D19*
X118000000Y-147000000D03*
D18*
X113000000Y-150700000D03*
%TD*%
%TO.C,SW11*%
X118000000Y-55900000D03*
D19*
X118000000Y-50000000D03*
D18*
X113000000Y-53700000D03*
%TD*%
%TO.C,SW25*%
X109000000Y-135900000D03*
D19*
X109000000Y-130000000D03*
D18*
X104000000Y-133700000D03*
%TD*%
%TO.C,SW22*%
X154000000Y-72900000D03*
D19*
X154000000Y-67000000D03*
D18*
X149000000Y-70700000D03*
%TD*%
D20*
%TO.C,SW1*%
X68500000Y-140000000D03*
X71500000Y-140000000D03*
%TD*%
D18*
%TO.C,SW4*%
X74450000Y-106309550D03*
D19*
X71500000Y-101200000D03*
D18*
X69019873Y-106904294D03*
%TD*%
%TO.C,SW21*%
X154000000Y-55900000D03*
D19*
X154000000Y-50000000D03*
D18*
X149000000Y-53700000D03*
%TD*%
%TO.C,SW9*%
X100000000Y-106900000D03*
D19*
X100000000Y-101000000D03*
D18*
X95000000Y-104700000D03*
%TD*%
%TO.C,SW8*%
X100000000Y-89900000D03*
D19*
X100000000Y-84000000D03*
D18*
X95000000Y-87700000D03*
%TD*%
%TO.C,SW15*%
X82950000Y-121109550D03*
D19*
X80000000Y-116000000D03*
D18*
X77519873Y-121704294D03*
%TD*%
%TO.C,SW33*%
X190000000Y-98400000D03*
D19*
X190000000Y-92500000D03*
D18*
X185000000Y-96200000D03*
%TD*%
%TO.C,SW28*%
X172000000Y-98400000D03*
D19*
X172000000Y-92500000D03*
D18*
X167000000Y-96200000D03*
%TD*%
%TO.C,SW18*%
X136000000Y-81400000D03*
D19*
X136000000Y-75500000D03*
D18*
X131000000Y-79200000D03*
%TD*%
%TO.C,SW31*%
X190000000Y-64400000D03*
D19*
X190000000Y-58500000D03*
D18*
X185000000Y-62200000D03*
%TD*%
%TO.C,SW5*%
X58850000Y-115209550D03*
D19*
X55900000Y-110100000D03*
D18*
X53419873Y-115804294D03*
%TD*%
D20*
%TO.C,SW00*%
X154750000Y-37500000D03*
X161250000Y-37500000D03*
%TD*%
D18*
%TO.C,SW34*%
X190000000Y-115400000D03*
D19*
X190000000Y-109500000D03*
D18*
X185000000Y-113200000D03*
%TD*%
%TO.C,SW30*%
X127000000Y-130900000D03*
D19*
X127000000Y-125000000D03*
D18*
X122000000Y-128700000D03*
%TD*%
%TO.C,SW6*%
X100000000Y-55900000D03*
D19*
X100000000Y-50000000D03*
D18*
X95000000Y-53700000D03*
%TD*%
%TO.C,SW24*%
X154000000Y-106900000D03*
D19*
X154000000Y-101000000D03*
D18*
X149000000Y-104700000D03*
%TD*%
%TO.C,SW12*%
X118000000Y-72900000D03*
D19*
X118000000Y-67000000D03*
D18*
X113000000Y-70700000D03*
%TD*%
D20*
%TO.C,SW3*%
X74500000Y-155000000D03*
X77500000Y-155000000D03*
%TD*%
D18*
%TO.C,SW7*%
X100000000Y-72900000D03*
D19*
X100000000Y-67000000D03*
D18*
X95000000Y-70700000D03*
%TD*%
%TO.C,SW19*%
X136000000Y-98400000D03*
D19*
X136000000Y-92500000D03*
D18*
X131000000Y-96200000D03*
%TD*%
%TO.C,SW16*%
X136000000Y-47400000D03*
D19*
X136000000Y-41500000D03*
D18*
X131000000Y-45200000D03*
%TD*%
%TO.C,SW10*%
X67450000Y-130109550D03*
D19*
X64500000Y-125000000D03*
D18*
X62019873Y-130704294D03*
%TD*%
%TO.C,SW14*%
X118000000Y-106900000D03*
D19*
X118000000Y-101000000D03*
D18*
X113000000Y-104700000D03*
%TD*%
%TO.C,SW35*%
X100000000Y-157900000D03*
D19*
X100000000Y-152000000D03*
D18*
X95000000Y-155700000D03*
%TD*%
%TO.C,SW39*%
X208000000Y-123900000D03*
D19*
X208000000Y-118000000D03*
D18*
X203000000Y-121700000D03*
%TD*%
D21*
%TO.C,J1*%
X165989000Y-42708200D03*
X165989000Y-35708200D03*
D22*
X163989000Y-46008200D03*
X167989000Y-37508200D03*
X167989000Y-40508200D03*
X167989000Y-44508200D03*
%TD*%
D18*
%TO.C,SW23*%
X154000000Y-89900000D03*
D19*
X154000000Y-84000000D03*
D18*
X149000000Y-87700000D03*
%TD*%
%TO.C,SW36*%
X208000000Y-72900000D03*
D19*
X208000000Y-67000000D03*
D18*
X203000000Y-70700000D03*
%TD*%
%TO.C,SW37*%
X208000000Y-89900000D03*
D19*
X208000000Y-84000000D03*
D18*
X203000000Y-87700000D03*
%TD*%
%TO.C,SW26*%
X172000000Y-64400000D03*
D19*
X172000000Y-58500000D03*
D18*
X167000000Y-62200000D03*
%TD*%
%TO.C,SW17*%
X136000000Y-64400000D03*
D19*
X136000000Y-58500000D03*
D18*
X131000000Y-62200000D03*
%TD*%
%TO.C,SW29*%
X172000000Y-115400000D03*
D19*
X172000000Y-109500000D03*
D18*
X167000000Y-113200000D03*
%TD*%
%LPD*%
M02*
