%TF.GenerationSoftware,KiCad,Pcbnew,9.0.5*%
%TF.CreationDate,2026-02-28T21:51:56+09:00*%
%TF.ProjectId,MicErgo_right,4d696345-7267-46f5-9f72-696768742e6b,rev?*%
%TF.SameCoordinates,Original*%
%TF.FileFunction,Copper,L1,Top*%
%TF.FilePolarity,Positive*%
%FSLAX46Y46*%
G04 Gerber Fmt 4.6, Leading zero omitted, Abs format (unit mm)*
G04 Created by KiCad (PCBNEW 9.0.5) date 2026-02-28 21:51:56*
%MOMM*%
%LPD*%
G01*
G04 APERTURE LIST*
%TA.AperFunction,ComponentPad*%
%ADD10C,1.500000*%
%TD*%
%TA.AperFunction,SMDPad,CuDef*%
%ADD11R,0.700000X1.200000*%
%TD*%
%TA.AperFunction,ComponentPad*%
%ADD12C,1.524000*%
%TD*%
%TA.AperFunction,ComponentPad*%
%ADD13C,1.397000*%
%TD*%
%TA.AperFunction,WasherPad*%
%ADD14C,5.000000*%
%TD*%
%TA.AperFunction,ComponentPad*%
%ADD15C,2.000000*%
%TD*%
%TA.AperFunction,WasherPad*%
%ADD16C,1.210000*%
%TD*%
%TA.AperFunction,ComponentPad*%
%ADD17O,1.300000X2.200000*%
%TD*%
%TA.AperFunction,ViaPad*%
%ADD18C,0.600000*%
%TD*%
%TA.AperFunction,Conductor*%
%ADD19C,0.200000*%
%TD*%
%TA.AperFunction,Conductor*%
%ADD20C,0.500000*%
%TD*%
G04 APERTURE END LIST*
D10*
%TO.P,P1,1,i2C*%
%TO.N,Net-(P1-i2C)*%
X173990000Y-39370000D03*
%TD*%
D11*
%TO.P,JP1,1,1*%
%TO.N,Net-(P2-i2C)*%
X170492800Y-37007800D03*
%TO.P,JP1,2,2*%
%TO.N,DATA*%
X171492800Y-37007800D03*
%TD*%
D12*
%TO.P,U1,1,TX0/D3*%
%TO.N,LED*%
X209280000Y-37500000D03*
%TO.P,U1,2,RX1/D2*%
%TO.N,DATA*%
X206740000Y-37500000D03*
%TO.P,U1,3,GND*%
%TO.N,GND*%
X204200000Y-37500000D03*
%TO.P,U1,4,GND*%
X201660000Y-37500000D03*
%TO.P,U1,5,2/D1/SDA*%
%TO.N,SDA*%
X199120000Y-37500000D03*
%TO.P,U1,6,3/D0/SCL*%
%TO.N,SCL*%
X196580000Y-37500000D03*
%TO.P,U1,7,4/D4*%
%TO.N,row0*%
X194040000Y-37500000D03*
%TO.P,U1,8,5/C6*%
%TO.N,row1*%
X191500000Y-37500000D03*
%TO.P,U1,9,6/D7*%
%TO.N,row2*%
X188960000Y-37500000D03*
%TO.P,U1,10,7/E6*%
%TO.N,row3*%
X186420000Y-37500000D03*
%TO.P,U1,11,8/B4*%
%TO.N,row4*%
X183880000Y-37500000D03*
%TO.P,U1,12,9/B5*%
%TO.N,MOTION*%
X181340000Y-37500000D03*
%TO.P,U1,13,B6/10*%
%TO.N,CS*%
X181340000Y-52740000D03*
%TO.P,U1,14,B2/16*%
%TO.N,MOSI*%
X183880000Y-52740000D03*
%TO.P,U1,15,B3/14*%
%TO.N,MOSO*%
X186420000Y-52740000D03*
%TO.P,U1,16,B1/15*%
%TO.N,SCLK*%
X188960000Y-52740000D03*
%TO.P,U1,17,F7/A0*%
%TO.N,col0*%
X191500000Y-52740000D03*
%TO.P,U1,18,F6/A1*%
%TO.N,col1*%
X194040000Y-52740000D03*
%TO.P,U1,19,F5/A2*%
%TO.N,col2*%
X196580000Y-52740000D03*
%TO.P,U1,20,F4/A3*%
%TO.N,col3*%
X199120000Y-52740000D03*
%TO.P,U1,21,VCC*%
%TO.N,VCC*%
X201660000Y-52740000D03*
%TO.P,U1,22,RST*%
%TO.N,RESET*%
X204200000Y-52740000D03*
%TO.P,U1,23,GND*%
%TO.N,GND*%
X206740000Y-52740000D03*
%TO.P,U1,24,RAW*%
%TO.N,unconnected-(U1-RAW-Pad24)*%
X209280000Y-52740000D03*
%TD*%
D10*
%TO.P,P2,1,i2C*%
%TO.N,Net-(P2-i2C)*%
X173990000Y-36499800D03*
%TD*%
D13*
%TO.P,OL1,1,SDA*%
%TO.N,SDA*%
X178000000Y-48810000D03*
%TO.P,OL1,2,SCL*%
%TO.N,SCL*%
X178000000Y-46270000D03*
%TO.P,OL1,3,VCC*%
%TO.N,VCC*%
X178000000Y-43730000D03*
%TO.P,OL1,4,GND*%
%TO.N,GND*%
X178000000Y-41190000D03*
%TD*%
D10*
%TO.P,J2,1,GND*%
%TO.N,VCC*%
X85500000Y-103200000D03*
%TO.P,J2,2,VCC*%
%TO.N,GND*%
X85500000Y-100660000D03*
%TO.P,J2,3*%
%TO.N,unconnected-(J2-Pad3)*%
X85500000Y-98120000D03*
%TO.P,J2,4,MOTION*%
%TO.N,MOTION*%
X85500000Y-95580000D03*
%TO.P,J2,5,SCLK*%
%TO.N,SCLK*%
X85500000Y-93040000D03*
%TO.P,J2,6,MOSI*%
%TO.N,MOSI*%
X85500000Y-90500000D03*
%TO.P,J2,7,MISO*%
%TO.N,MOSO*%
X85500000Y-87960000D03*
%TO.P,J2,8,CS*%
%TO.N,CS*%
X85500000Y-85420000D03*
%TD*%
D14*
%TO.P,SW38,*%
%TO.N,*%
X208000000Y-101000000D03*
%TD*%
%TO.P,SW32,*%
%TO.N,*%
X190000000Y-75500000D03*
%TD*%
D15*
%TO.P,SW2,1,1*%
%TO.N,col0*%
X71500000Y-147500000D03*
%TO.P,SW2,2,2*%
%TO.N,Net-(D2-K)*%
X74500000Y-147500000D03*
%TD*%
D14*
%TO.P,SW13,*%
%TO.N,*%
X118000000Y-84000000D03*
%TD*%
%TO.P,SW20,*%
%TO.N,*%
X91000000Y-135000000D03*
%TD*%
%TO.P,SW27,*%
%TO.N,*%
X172000000Y-75500000D03*
%TD*%
%TO.P,SW40,*%
%TO.N,*%
X118000000Y-147000000D03*
%TD*%
%TO.P,SW11,*%
%TO.N,*%
X118000000Y-50000000D03*
%TD*%
%TO.P,SW25,*%
%TO.N,*%
X109000000Y-130000000D03*
%TD*%
%TO.P,SW22,*%
%TO.N,*%
X154000000Y-67000000D03*
%TD*%
D15*
%TO.P,SW1,1,1*%
%TO.N,col0*%
X68500000Y-140000000D03*
%TO.P,SW1,2,2*%
%TO.N,Net-(D1-K)*%
X71500000Y-140000000D03*
%TD*%
D14*
%TO.P,SW4,*%
%TO.N,*%
X71500000Y-101200000D03*
%TD*%
%TO.P,SW21,*%
%TO.N,*%
X154000000Y-50000000D03*
%TD*%
%TO.P,SW9,*%
%TO.N,*%
X100000000Y-101000000D03*
%TD*%
%TO.P,SW8,*%
%TO.N,*%
X100000000Y-84000000D03*
%TD*%
%TO.P,SW15,*%
%TO.N,*%
X80000000Y-116000000D03*
%TD*%
%TO.P,SW33,*%
%TO.N,*%
X190000000Y-92500000D03*
%TD*%
%TO.P,SW28,*%
%TO.N,*%
X172000000Y-92500000D03*
%TD*%
%TO.P,SW18,*%
%TO.N,*%
X136000000Y-75500000D03*
%TD*%
%TO.P,SW31,*%
%TO.N,*%
X190000000Y-58500000D03*
%TD*%
%TO.P,SW5,*%
%TO.N,*%
X55900000Y-110100000D03*
%TD*%
D15*
%TO.P,SW00,1,1*%
%TO.N,RESET*%
X154750000Y-37500000D03*
%TO.P,SW00,2,2*%
%TO.N,GND*%
X161250000Y-37500000D03*
%TD*%
D14*
%TO.P,SW34,*%
%TO.N,*%
X190000000Y-109500000D03*
%TD*%
%TO.P,SW30,*%
%TO.N,*%
X127000000Y-125000000D03*
%TD*%
%TO.P,SW6,*%
%TO.N,*%
X100000000Y-50000000D03*
%TD*%
%TO.P,SW24,*%
%TO.N,*%
X154000000Y-101000000D03*
%TD*%
%TO.P,SW12,*%
%TO.N,*%
X118000000Y-67000000D03*
%TD*%
D15*
%TO.P,SW3,1,1*%
%TO.N,col0*%
X74500000Y-155000000D03*
%TO.P,SW3,2,2*%
%TO.N,Net-(D3-K)*%
X77500000Y-155000000D03*
%TD*%
D14*
%TO.P,SW7,*%
%TO.N,*%
X100000000Y-67000000D03*
%TD*%
%TO.P,SW19,*%
%TO.N,*%
X136000000Y-92500000D03*
%TD*%
%TO.P,SW16,*%
%TO.N,*%
X136000000Y-41500000D03*
%TD*%
%TO.P,SW10,*%
%TO.N,*%
X64500000Y-125000000D03*
%TD*%
%TO.P,SW14,*%
%TO.N,*%
X118000000Y-101000000D03*
%TD*%
%TO.P,SW35,*%
%TO.N,*%
X100000000Y-152000000D03*
%TD*%
%TO.P,SW39,*%
%TO.N,*%
X208000000Y-118000000D03*
%TD*%
D16*
%TO.P,J1,*%
%TO.N,*%
X165989000Y-42708200D03*
X165989000Y-35708200D03*
D17*
%TO.P,J1,A*%
%TO.N,Net-(P1-i2C)*%
X163989000Y-46008200D03*
%TO.P,J1,B*%
%TO.N,Net-(P2-i2C)*%
X167989000Y-37508200D03*
%TO.P,J1,C*%
%TO.N,GND*%
X167989000Y-40508200D03*
%TO.P,J1,D*%
%TO.N,VCC*%
X167989000Y-44508200D03*
%TD*%
D14*
%TO.P,SW23,*%
%TO.N,*%
X154000000Y-84000000D03*
%TD*%
%TO.P,SW36,*%
%TO.N,*%
X208000000Y-67000000D03*
%TD*%
%TO.P,SW37,*%
%TO.N,*%
X208000000Y-84000000D03*
%TD*%
%TO.P,SW26,*%
%TO.N,*%
X172000000Y-58500000D03*
%TD*%
%TO.P,SW17,*%
%TO.N,*%
X136000000Y-58500000D03*
%TD*%
%TO.P,SW29,*%
%TO.N,*%
X172000000Y-109500000D03*
%TD*%
D18*
%TO.N,row0*%
X200500000Y-45597000D03*
X194500000Y-45000000D03*
X122000000Y-59500000D03*
X196000000Y-68000000D03*
X140500000Y-107500000D03*
X160000000Y-66500000D03*
X196000000Y-75000000D03*
X123000000Y-50500000D03*
X142000000Y-58000000D03*
X160000000Y-58500000D03*
X141500000Y-51000000D03*
%TO.N,row1*%
X142000000Y-67500000D03*
X123500000Y-67000000D03*
X142000000Y-75500000D03*
X80000000Y-132000000D03*
X185750000Y-57750000D03*
X180500000Y-82500000D03*
X77000000Y-142500000D03*
X180500000Y-58500000D03*
X195000000Y-85000000D03*
X195750000Y-92000000D03*
X159500000Y-76500000D03*
X158500000Y-112000000D03*
X122500000Y-76500000D03*
X160000000Y-83500000D03*
%TO.N,row2*%
X142000000Y-92500000D03*
X160000000Y-91500000D03*
X142000000Y-85000000D03*
X122500000Y-93500000D03*
X120750000Y-118750000D03*
X123500000Y-84000000D03*
X196000000Y-109000000D03*
X195000000Y-102000000D03*
X160000000Y-100500000D03*
X177000000Y-86500000D03*
X177500000Y-57500000D03*
X80000000Y-150000000D03*
X81000000Y-133000000D03*
X185000000Y-56500000D03*
%TO.N,row3*%
X162500000Y-110500000D03*
X195000000Y-119000000D03*
X184500000Y-55000000D03*
X163000000Y-56000000D03*
X142000000Y-102000000D03*
X122500000Y-110500000D03*
X123500000Y-101000000D03*
X195775000Y-125000000D03*
X160000000Y-117500000D03*
X142000000Y-109500000D03*
X160000000Y-110500000D03*
%TO.N,row4*%
X100500000Y-139500000D03*
X100500000Y-146000000D03*
X86000000Y-146000000D03*
X126000000Y-113000000D03*
X116000000Y-131000000D03*
X106193750Y-153306250D03*
X57500000Y-127000000D03*
X116000000Y-137500000D03*
X126500000Y-48500000D03*
X183500000Y-42500000D03*
X116000000Y-114000000D03*
X88750000Y-158250000D03*
X61000000Y-127500000D03*
X104000000Y-146000000D03*
%TO.N,Net-(D41-A)*%
X143000000Y-43000000D03*
X143000000Y-87500000D03*
X143000000Y-54000000D03*
X143000000Y-71000000D03*
X143000000Y-119500000D03*
X143000000Y-104500000D03*
%TO.N,col0*%
X66000000Y-115500000D03*
X103000000Y-77500000D03*
X105250000Y-45250000D03*
X162500000Y-42500000D03*
X164500000Y-48000000D03*
X174000000Y-47000000D03*
X191500000Y-48000000D03*
X170000000Y-47000000D03*
%TO.N,col1*%
X131500000Y-71000000D03*
X88500000Y-111000000D03*
X91500000Y-74000000D03*
X130000000Y-65500000D03*
X89000000Y-104500000D03*
X89000000Y-87500000D03*
X191500000Y-69000000D03*
%TO.N,Net-(D42-A)*%
X161000000Y-69500000D03*
X161000000Y-79000000D03*
X161000000Y-113000000D03*
X161000000Y-63000000D03*
X161000000Y-121000000D03*
X161000000Y-96000000D03*
%TO.N,Net-(D43-A)*%
X179000000Y-96500000D03*
X179000000Y-63500000D03*
X179000000Y-113500000D03*
X179000000Y-70000000D03*
X179000000Y-79500000D03*
X179000000Y-123000000D03*
%TO.N,col2*%
X107000000Y-104500000D03*
X107000000Y-70500000D03*
X106500000Y-112500000D03*
X107000000Y-54500000D03*
X107000000Y-87500000D03*
X193500000Y-69000000D03*
%TO.N,col3*%
X147500000Y-57000000D03*
X125000000Y-96000000D03*
X88500000Y-114500000D03*
X125000000Y-62000000D03*
X124500000Y-112500000D03*
X148500000Y-63000000D03*
X88500000Y-131500000D03*
X125000000Y-79500000D03*
X125000000Y-46000000D03*
%TO.N,Net-(D44-A)*%
X197000000Y-121500000D03*
X197000000Y-71500000D03*
X197000000Y-104500000D03*
X197000000Y-87500000D03*
%TO.N,GND*%
X204200000Y-41500000D03*
X140500000Y-54500000D03*
X139000000Y-88000000D03*
X206700000Y-41500000D03*
X144000000Y-51000000D03*
X144000000Y-40900000D03*
%TO.N,VCC*%
X166000000Y-88000000D03*
X201660000Y-44160000D03*
%TO.N,Net-(P1-i2C)*%
X173990000Y-41750000D03*
X164500000Y-41500000D03*
%TO.N,Net-(P2-i2C)*%
X171000000Y-35500000D03*
%TO.N,CS*%
X103500000Y-79000000D03*
X105250000Y-61750000D03*
X140000000Y-44500000D03*
X139000000Y-52500000D03*
X181500000Y-50000000D03*
%TO.N,MOTION*%
X176500000Y-37400000D03*
X160000000Y-53500000D03*
X138500000Y-79000000D03*
X138000000Y-86500000D03*
X157500000Y-77500000D03*
X175500000Y-53500000D03*
%TO.N,MOSO*%
X105750000Y-62750000D03*
X141500000Y-45500000D03*
X140000000Y-53000000D03*
X104500000Y-80000000D03*
%TO.N,SCLK*%
X156500000Y-60500000D03*
X104500000Y-94500000D03*
X105500000Y-82500000D03*
X158000000Y-53500000D03*
%TO.N,MOSI*%
X104500000Y-81500000D03*
X156699000Y-52801000D03*
X151000000Y-61000000D03*
X103500000Y-94000000D03*
%TO.N,DATA*%
X172500000Y-34900000D03*
%TO.N,SCL*%
X196500000Y-46000000D03*
%TO.N,SDA*%
X199000000Y-48500000D03*
%TO.N,RESET*%
X202500000Y-39000000D03*
%TD*%
D19*
%TO.N,row0*%
X141000000Y-59000000D02*
X141000000Y-83000000D01*
X196000000Y-68000000D02*
X196000000Y-75000000D01*
X200500000Y-45597000D02*
X200500000Y-54500000D01*
X141500000Y-51000000D02*
X142000000Y-51500000D01*
X194112776Y-44612776D02*
X194112776Y-37572776D01*
X200500000Y-54500000D02*
X197000000Y-58000000D01*
X197000000Y-58000000D02*
X197000000Y-67000000D01*
X141000000Y-107000000D02*
X140500000Y-107500000D01*
X194112776Y-37572776D02*
X194040000Y-37500000D01*
X142000000Y-58000000D02*
X141000000Y-59000000D01*
X123000000Y-58500000D02*
X122000000Y-59500000D01*
X142000000Y-51500000D02*
X142000000Y-58000000D01*
X197000000Y-67000000D02*
X196000000Y-68000000D01*
X123000000Y-50500000D02*
X123000000Y-58500000D01*
X141000000Y-83000000D02*
X141000000Y-107000000D01*
X160000000Y-58500000D02*
X160000000Y-66500000D01*
X194500000Y-45000000D02*
X194112776Y-44612776D01*
%TO.N,row1*%
X180500000Y-58500000D02*
X180500000Y-82500000D01*
X195000000Y-85000000D02*
X195750000Y-85750000D01*
X80000000Y-139500000D02*
X77000000Y-142500000D01*
X190023000Y-46477000D02*
X191500000Y-45000000D01*
X158500000Y-112000000D02*
X159000000Y-111500000D01*
X159000000Y-84500000D02*
X160000000Y-83500000D01*
X159000000Y-111500000D02*
X159000000Y-84500000D01*
X142000000Y-67500000D02*
X142000000Y-75500000D01*
X185750000Y-57750000D02*
X188000000Y-55500000D01*
X123000000Y-67500000D02*
X123500000Y-67000000D01*
X123000000Y-76000000D02*
X123000000Y-67500000D01*
X188000000Y-55500000D02*
X189000000Y-55500000D01*
X160000000Y-77000000D02*
X160000000Y-83500000D01*
X189000000Y-55500000D02*
X190023000Y-54477000D01*
X190023000Y-54477000D02*
X190023000Y-46477000D01*
X80000000Y-132000000D02*
X80000000Y-139500000D01*
X195750000Y-85750000D02*
X195750000Y-92000000D01*
X191500000Y-45000000D02*
X191500000Y-37500000D01*
X159500000Y-76500000D02*
X160000000Y-77000000D01*
X122500000Y-76500000D02*
X123000000Y-76000000D01*
%TO.N,row2*%
X120750000Y-118750000D02*
X121500000Y-118000000D01*
X187483000Y-54517000D02*
X187483000Y-46017000D01*
X121500000Y-94500000D02*
X122500000Y-93500000D01*
X121500000Y-118000000D02*
X121500000Y-94500000D01*
X123000000Y-93000000D02*
X123000000Y-84500000D01*
X160000000Y-91500000D02*
X160000000Y-100500000D01*
X80000000Y-150000000D02*
X81000000Y-149000000D01*
X81000000Y-149000000D02*
X81000000Y-133000000D01*
X123000000Y-84500000D02*
X123500000Y-84000000D01*
X122500000Y-93500000D02*
X123000000Y-93000000D01*
X196000000Y-103000000D02*
X195000000Y-102000000D01*
X177500000Y-86000000D02*
X177000000Y-86500000D01*
X187483000Y-46017000D02*
X188960000Y-44540000D01*
X196000000Y-109000000D02*
X196000000Y-103000000D01*
X177500000Y-57500000D02*
X177500000Y-86000000D01*
X185500000Y-56500000D02*
X187483000Y-54517000D01*
X185000000Y-56500000D02*
X185500000Y-56500000D01*
X188960000Y-44540000D02*
X188960000Y-37500000D01*
X142000000Y-85000000D02*
X142000000Y-92500000D01*
%TO.N,row3*%
X160000000Y-110500000D02*
X160000000Y-117500000D01*
X162500000Y-56500000D02*
X162500000Y-110500000D01*
X123000000Y-110000000D02*
X123000000Y-101500000D01*
X195775000Y-119775000D02*
X195000000Y-119000000D01*
X122500000Y-110500000D02*
X123000000Y-110000000D01*
X186420000Y-44580000D02*
X186420000Y-37500000D01*
X184500000Y-55000000D02*
X185000000Y-54500000D01*
X163000000Y-56000000D02*
X162500000Y-56500000D01*
X185000000Y-46000000D02*
X186420000Y-44580000D01*
X195775000Y-125000000D02*
X195775000Y-119775000D01*
X185000000Y-54500000D02*
X185000000Y-46000000D01*
X123000000Y-101500000D02*
X123500000Y-101000000D01*
X142000000Y-102000000D02*
X142000000Y-109500000D01*
%TO.N,row4*%
X126500000Y-48500000D02*
X126500000Y-112500000D01*
X100500000Y-139500000D02*
X100500000Y-146000000D01*
X88750000Y-158250000D02*
X86000000Y-155500000D01*
X183880000Y-42120000D02*
X183500000Y-42500000D01*
X106193750Y-153306250D02*
X104000000Y-151112500D01*
X116000000Y-131000000D02*
X116000000Y-114000000D01*
X116000000Y-137500000D02*
X116000000Y-131000000D01*
X60500000Y-127000000D02*
X61000000Y-127500000D01*
X86000000Y-155500000D02*
X86000000Y-146000000D01*
X183880000Y-37500000D02*
X183880000Y-42120000D01*
X126500000Y-112500000D02*
X126000000Y-113000000D01*
X104000000Y-151112500D02*
X104000000Y-146000000D01*
X57500000Y-127000000D02*
X60500000Y-127000000D01*
%TO.N,Net-(D41-A)*%
X143000000Y-54000000D02*
X143000000Y-43000000D01*
X143000000Y-119500000D02*
X143000000Y-104500000D01*
X143000000Y-54000000D02*
X143000000Y-71000000D01*
X143000000Y-87500000D02*
X143000000Y-104500000D01*
X143000000Y-71000000D02*
X143000000Y-87500000D01*
D20*
%TO.N,col0*%
X170000000Y-47000000D02*
X174000000Y-47000000D01*
D19*
X68500000Y-118000000D02*
X68500000Y-128541841D01*
X71500000Y-147500000D02*
X71500000Y-152000000D01*
X103500000Y-47000000D02*
X105250000Y-45250000D01*
X71500000Y-152000000D02*
X74500000Y-155000000D01*
X68500000Y-140000000D02*
X68500000Y-144500000D01*
X103500000Y-77000000D02*
X103500000Y-47000000D01*
X164500000Y-48000000D02*
X163500000Y-48000000D01*
X103000000Y-77500000D02*
X103500000Y-77000000D01*
X66000000Y-115500000D02*
X68500000Y-118000000D01*
X191500000Y-48000000D02*
X191500000Y-52740000D01*
X163500000Y-48000000D02*
X162500000Y-47000000D01*
X69301000Y-129342841D02*
X69301000Y-130876259D01*
X162500000Y-47000000D02*
X162500000Y-42500000D01*
X68500000Y-128541841D02*
X69301000Y-129342841D01*
X69301000Y-130876259D02*
X68500000Y-131677259D01*
X68500000Y-131677259D02*
X68500000Y-140000000D01*
X68500000Y-144500000D02*
X71500000Y-147500000D01*
X68500000Y-140000000D02*
X69118000Y-140618000D01*
%TO.N,col1*%
X193000000Y-61000000D02*
X194040000Y-59960000D01*
X131500000Y-71000000D02*
X131000000Y-70500000D01*
X89000000Y-110500000D02*
X88500000Y-111000000D01*
X131000000Y-66500000D02*
X130000000Y-65500000D01*
X89000000Y-87500000D02*
X91500000Y-85000000D01*
X89000000Y-104500000D02*
X89000000Y-110500000D01*
X131000000Y-70500000D02*
X131000000Y-66500000D01*
X193000000Y-67500000D02*
X193000000Y-61000000D01*
X89000000Y-87500000D02*
X89000000Y-104500000D01*
X191500000Y-69000000D02*
X193000000Y-67500000D01*
X91500000Y-85000000D02*
X91500000Y-74000000D01*
X194040000Y-59960000D02*
X194040000Y-52740000D01*
%TO.N,Net-(D42-A)*%
X161000000Y-63000000D02*
X161000000Y-69500000D01*
X161000000Y-69500000D02*
X161000000Y-79000000D01*
X161000000Y-113000000D02*
X161000000Y-121000000D01*
X161000000Y-96000000D02*
X161000000Y-113000000D01*
X161000000Y-79000000D02*
X161000000Y-96000000D01*
%TO.N,Net-(D43-A)*%
X179000000Y-79500000D02*
X179000000Y-96500000D01*
X179000000Y-70000000D02*
X179000000Y-79500000D01*
X179000000Y-113500000D02*
X179000000Y-123000000D01*
X179000000Y-96500000D02*
X179000000Y-113500000D01*
X179000000Y-63500000D02*
X179000000Y-70000000D01*
%TO.N,col2*%
X195500000Y-61020000D02*
X195500000Y-56500000D01*
X107000000Y-104500000D02*
X107000000Y-112000000D01*
X107000000Y-70500000D02*
X107000000Y-87500000D01*
X193500000Y-69000000D02*
X194500000Y-68000001D01*
X107000000Y-54500000D02*
X107000000Y-70500000D01*
X194500000Y-68000001D02*
X194500000Y-62020000D01*
X196580000Y-55420000D02*
X196580000Y-52740000D01*
X195500000Y-56500000D02*
X196580000Y-55420000D01*
X107000000Y-112000000D02*
X106500000Y-112500000D01*
X194500000Y-62020000D02*
X195500000Y-61020000D01*
X107000000Y-87500000D02*
X107000000Y-104500000D01*
%TO.N,col3*%
X125000000Y-62000000D02*
X125000000Y-79500000D01*
X125000000Y-112000000D02*
X124500000Y-112500000D01*
X148000000Y-57500000D02*
X148000000Y-62500000D01*
X125000000Y-79500000D02*
X125000000Y-96000000D01*
X125000000Y-46000000D02*
X125000000Y-62000000D01*
X125000000Y-96000000D02*
X125000000Y-112000000D01*
X148000000Y-62500000D02*
X148500000Y-63000000D01*
X147500000Y-57000000D02*
X148000000Y-57500000D01*
X88500000Y-114500000D02*
X88500000Y-131500000D01*
%TO.N,Net-(D44-A)*%
X197000000Y-71500000D02*
X197000000Y-87500000D01*
X197000000Y-87500000D02*
X197000000Y-104500000D01*
X197000000Y-104500000D02*
X197000000Y-121500000D01*
D20*
%TO.N,GND*%
X139500000Y-55500000D02*
X140500000Y-54500000D01*
X139000000Y-88000000D02*
X139500000Y-87500000D01*
X144000000Y-40900000D02*
X144000000Y-51000000D01*
X204200000Y-37500000D02*
X204200000Y-41500000D01*
X206700000Y-52700000D02*
X206740000Y-52740000D01*
X139500000Y-87500000D02*
X139500000Y-55500000D01*
X206700000Y-41500000D02*
X206700000Y-52700000D01*
%TO.N,VCC*%
X168000000Y-81500000D02*
X168500000Y-81500000D01*
X169500000Y-78000000D02*
X166500000Y-75000000D01*
X166500000Y-75000000D02*
X166500000Y-66500000D01*
X166500000Y-83000000D02*
X168000000Y-81500000D01*
X167000000Y-45497200D02*
X167989000Y-44508200D01*
X168500000Y-81500000D02*
X169500000Y-80500000D01*
X166500000Y-66500000D02*
X169500000Y-63500000D01*
X169500000Y-80500000D02*
X169500000Y-78000000D01*
X166500000Y-87500000D02*
X166500000Y-83000000D01*
X169500000Y-61500000D02*
X167000000Y-59000000D01*
X167000000Y-59000000D02*
X167000000Y-45497200D01*
X166000000Y-88000000D02*
X166500000Y-87500000D01*
X169500000Y-63500000D02*
X169500000Y-61500000D01*
X201660000Y-44160000D02*
X201660000Y-52740000D01*
D19*
%TO.N,Net-(P1-i2C)*%
X164000000Y-46000000D02*
X164000000Y-42000000D01*
X173990000Y-41750000D02*
X173990000Y-39370000D01*
X164000000Y-42000000D02*
X164500000Y-41500000D01*
%TO.N,Net-(P2-i2C)*%
X170000000Y-37500000D02*
X168000000Y-37500000D01*
X171000000Y-35500000D02*
X170500000Y-36000000D01*
X170500000Y-37000000D02*
X170000000Y-37500000D01*
X170500000Y-36000000D02*
X170500000Y-37000000D01*
%TO.N,CS*%
X139500000Y-45000000D02*
X139500000Y-52000000D01*
X139500000Y-52000000D02*
X139000000Y-52500000D01*
X181500000Y-50000000D02*
X182000000Y-50500000D01*
X140000000Y-44500000D02*
X139500000Y-45000000D01*
X105250000Y-61750000D02*
X104500000Y-62500000D01*
X104500000Y-78000000D02*
X103500000Y-79000000D01*
X104500000Y-62500000D02*
X104500000Y-78000000D01*
X182000000Y-52080000D02*
X181340000Y-52740000D01*
X182000000Y-50500000D02*
X182000000Y-52080000D01*
%TO.N,MOTION*%
X160000000Y-53500000D02*
X158000000Y-55500000D01*
X176000000Y-53000000D02*
X176000000Y-37900000D01*
X138000000Y-86500000D02*
X138500000Y-86000000D01*
X175500000Y-53500000D02*
X176000000Y-53000000D01*
X176000000Y-37900000D02*
X176500000Y-37400000D01*
X158000000Y-77000000D02*
X157500000Y-77500000D01*
X158000000Y-55500000D02*
X158000000Y-77000000D01*
X138500000Y-86000000D02*
X138500000Y-79000000D01*
%TO.N,MOSO*%
X140000000Y-53000000D02*
X140500000Y-52500000D01*
X105601000Y-78899000D02*
X104500000Y-80000000D01*
X105750000Y-62952000D02*
X105601000Y-63101000D01*
X105750000Y-62750000D02*
X105750000Y-62952000D01*
X105601000Y-63101000D02*
X105601000Y-78899000D01*
X140500000Y-46000000D02*
X141000000Y-45500000D01*
X140500000Y-52500000D02*
X140500000Y-46000000D01*
X141000000Y-45500000D02*
X141500000Y-45500000D01*
%TO.N,SCLK*%
X156500000Y-60500000D02*
X156500000Y-55000000D01*
X156500000Y-55000000D02*
X158000000Y-53500000D01*
X105500000Y-87000000D02*
X105500000Y-82500000D01*
X105000000Y-94000000D02*
X105000000Y-87500000D01*
X105000000Y-87500000D02*
X105500000Y-87000000D01*
X104500000Y-94500000D02*
X105000000Y-94000000D01*
%TO.N,MOSI*%
X104500000Y-81500000D02*
X104500000Y-85000000D01*
X103500000Y-86000000D02*
X103500000Y-94000000D01*
X151500000Y-55000000D02*
X153000000Y-53500000D01*
X151000000Y-61000000D02*
X151500000Y-60500000D01*
X104500000Y-85000000D02*
X103500000Y-86000000D01*
X151500000Y-60500000D02*
X151500000Y-55000000D01*
X153000000Y-53500000D02*
X156000000Y-53500000D01*
X156000000Y-53500000D02*
X156699000Y-52801000D01*
%TO.N,DATA*%
X171500000Y-36000000D02*
X171500000Y-37000000D01*
X172500000Y-34900000D02*
X172500000Y-35000000D01*
X172500000Y-35000000D02*
X171500000Y-36000000D01*
%TO.N,SCL*%
X196500000Y-46000000D02*
X196500000Y-37580000D01*
X196500000Y-37580000D02*
X196580000Y-37500000D01*
%TO.N,SDA*%
X199120000Y-48380000D02*
X199120000Y-37500000D01*
X199000000Y-48500000D02*
X199120000Y-48380000D01*
%TO.N,RESET*%
X202500000Y-39000000D02*
X203000000Y-39500000D01*
X204000000Y-43000000D02*
X204000000Y-52540000D01*
X203000000Y-39500000D02*
X203000000Y-42000000D01*
X204000000Y-52540000D02*
X204200000Y-52740000D01*
X203000000Y-42000000D02*
X204000000Y-43000000D01*
%TD*%
M02*
