%TF.GenerationSoftware,KiCad,Pcbnew,9.0.5*%
%TF.CreationDate,2026-02-28T21:51:56+09:00*%
%TF.ProjectId,MicErgo_right,4d696345-7267-46f5-9f72-696768742e6b,rev?*%
%TF.SameCoordinates,Original*%
%TF.FileFunction,Soldermask,Bot*%
%TF.FilePolarity,Negative*%
%FSLAX46Y46*%
G04 Gerber Fmt 4.6, Leading zero omitted, Abs format (unit mm)*
G04 Created by KiCad (PCBNEW 9.0.5) date 2026-02-28 21:51:56*
%MOMM*%
%LPD*%
G01*
G04 APERTURE LIST*
G04 Aperture macros list*
%AMRoundRect*
0 Rectangle with rounded corners*
0 $1 Rounding radius*
0 $2 $3 $4 $5 $6 $7 $8 $9 X,Y pos of 4 corners*
0 Add a 4 corners polygon primitive as box body*
4,1,4,$2,$3,$4,$5,$6,$7,$8,$9,$2,$3,0*
0 Add four circle primitives for the rounded corners*
1,1,$1+$1,$2,$3*
1,1,$1+$1,$4,$5*
1,1,$1+$1,$6,$7*
1,1,$1+$1,$8,$9*
0 Add four rect primitives between the rounded corners*
20,1,$1+$1,$2,$3,$4,$5,0*
20,1,$1+$1,$4,$5,$6,$7,0*
20,1,$1+$1,$6,$7,$8,$9,0*
20,1,$1+$1,$8,$9,$2,$3,0*%
%AMRotRect*
0 Rectangle, with rotation*
0 The origin of the aperture is its center*
0 $1 length*
0 $2 width*
0 $3 Rotation angle, in degrees counterclockwise*
0 Add horizontal line*
21,1,$1,$2,0,0,$3*%
G04 Aperture macros list end*
%ADD10C,1.500000*%
%ADD11C,2.200000*%
%ADD12C,1.524000*%
%ADD13C,1.397000*%
%ADD14C,3.000000*%
%ADD15C,5.000000*%
%ADD16R,2.800000X2.800000*%
%ADD17C,2.000000*%
%ADD18R,1.300000X0.950000*%
%ADD19RotRect,2.800000X2.800000X30.000000*%
%ADD20RoundRect,0.200000X-0.200000X-0.275000X0.200000X-0.275000X0.200000X0.275000X-0.200000X0.275000X0*%
%ADD21C,1.210000*%
%ADD22O,1.300000X2.200000*%
G04 APERTURE END LIST*
D10*
%TO.C,P1*%
X173990000Y-39370000D03*
%TD*%
D11*
%TO.C,Ref\u002A\u002A*%
X147000000Y-115500000D03*
%TD*%
%TO.C,Ref\u002A\u002A*%
X109000000Y-58500000D03*
%TD*%
%TO.C,Ref\u002A\u002A*%
X83000000Y-158000000D03*
%TD*%
D12*
%TO.C,U1*%
X209280000Y-37500000D03*
X206740000Y-37500000D03*
X204200000Y-37500000D03*
X201660000Y-37500000D03*
X199120000Y-37500000D03*
X196580000Y-37500000D03*
X194040000Y-37500000D03*
X191500000Y-37500000D03*
X188960000Y-37500000D03*
X186420000Y-37500000D03*
X183880000Y-37500000D03*
X181340000Y-37500000D03*
X181340000Y-52740000D03*
X183880000Y-52740000D03*
X186420000Y-52740000D03*
X188960000Y-52740000D03*
X191500000Y-52740000D03*
X194040000Y-52740000D03*
X196580000Y-52740000D03*
X199120000Y-52740000D03*
X201660000Y-52740000D03*
X204200000Y-52740000D03*
X206740000Y-52740000D03*
X209280000Y-52740000D03*
%TD*%
D11*
%TO.C,Ref\u002A\u002A*%
X211000000Y-57000000D03*
%TD*%
D10*
%TO.C,P2*%
X173990000Y-36499800D03*
%TD*%
D11*
%TO.C,Ref\u002A\u002A*%
X191500000Y-122000000D03*
%TD*%
D13*
%TO.C,OL1*%
X178000000Y-48810000D03*
X178000000Y-46270000D03*
X178000000Y-43730000D03*
X178000000Y-41190000D03*
%TD*%
D11*
%TO.C,Ref\u002A\u002A*%
X80000000Y-90000000D03*
%TD*%
%TO.C,Ref\u002A\u002A*%
X150000000Y-37500000D03*
%TD*%
D10*
%TO.C,J2*%
X85500000Y-103200000D03*
X85500000Y-100660000D03*
X85500000Y-98120000D03*
X85500000Y-95580000D03*
X85500000Y-93040000D03*
X85500000Y-90500000D03*
X85500000Y-87960000D03*
X85500000Y-85420000D03*
%TD*%
D14*
%TO.C,SW38*%
X208000000Y-106900000D03*
D15*
X208000000Y-101000000D03*
D14*
X203000000Y-104700000D03*
D16*
X199500000Y-104700000D03*
X211600000Y-106900000D03*
%TD*%
D14*
%TO.C,SW32*%
X190000000Y-81400000D03*
D15*
X190000000Y-75500000D03*
D14*
X185000000Y-79200000D03*
D16*
X181500000Y-79200000D03*
X193600000Y-81400000D03*
%TD*%
D17*
%TO.C,SW2*%
X71500000Y-147500000D03*
X74500000Y-147500000D03*
%TD*%
D18*
%TO.C,D22*%
X150275000Y-75500000D03*
X146725000Y-75500000D03*
%TD*%
D14*
%TO.C,SW13*%
X118000000Y-89900000D03*
D15*
X118000000Y-84000000D03*
D14*
X113000000Y-87700000D03*
D16*
X109500000Y-87700000D03*
X121600000Y-89900000D03*
%TD*%
D14*
%TO.C,SW20*%
X91000000Y-140900000D03*
D15*
X91000000Y-135000000D03*
D14*
X86000000Y-138700000D03*
D16*
X82500000Y-138700000D03*
X94600000Y-140900000D03*
%TD*%
D14*
%TO.C,SW27*%
X172000000Y-81400000D03*
D15*
X172000000Y-75500000D03*
D14*
X167000000Y-79200000D03*
D16*
X163500000Y-79200000D03*
X175600000Y-81400000D03*
%TD*%
D18*
%TO.C,D20*%
X87275000Y-143500000D03*
X83725000Y-143500000D03*
%TD*%
%TO.C,D2*%
X78775000Y-145000000D03*
X75225000Y-145000000D03*
%TD*%
%TO.C,D39*%
X203775000Y-125500000D03*
X200225000Y-125500000D03*
%TD*%
%TO.C,D26*%
X168275000Y-67000000D03*
X164725000Y-67000000D03*
%TD*%
%TO.C,D6*%
X96275000Y-58500000D03*
X92725000Y-58500000D03*
%TD*%
D14*
%TO.C,SW40*%
X118000000Y-152900000D03*
D15*
X118000000Y-147000000D03*
D14*
X113000000Y-150700000D03*
D16*
X109500000Y-150700000D03*
X121600000Y-152900000D03*
%TD*%
D18*
%TO.C,D18*%
X132275000Y-84000000D03*
X128725000Y-84000000D03*
%TD*%
%TO.C,D12*%
X114275000Y-75500000D03*
X110725000Y-75500000D03*
%TD*%
%TO.C,D7*%
X96275000Y-75500000D03*
X92725000Y-75500000D03*
%TD*%
D14*
%TO.C,SW11*%
X118000000Y-55900000D03*
D15*
X118000000Y-50000000D03*
D14*
X113000000Y-53700000D03*
D16*
X109500000Y-53700000D03*
X121600000Y-55900000D03*
%TD*%
D18*
%TO.C,D32*%
X186275000Y-84000000D03*
X182725000Y-84000000D03*
%TD*%
%TO.C,D11*%
X115500000Y-59000000D03*
X111950000Y-59000000D03*
%TD*%
%TO.C,D43*%
X186275000Y-70000000D03*
X182725000Y-70000000D03*
%TD*%
%TO.C,D30*%
X123275000Y-133500000D03*
X119725000Y-133500000D03*
%TD*%
D14*
%TO.C,SW25*%
X109000000Y-135900000D03*
D15*
X109000000Y-130000000D03*
D14*
X104000000Y-133700000D03*
D16*
X100500000Y-133700000D03*
X112600000Y-135900000D03*
%TD*%
D14*
%TO.C,SW22*%
X154000000Y-72900000D03*
D15*
X154000000Y-67000000D03*
D14*
X149000000Y-70700000D03*
D16*
X145500000Y-70700000D03*
X157600000Y-72900000D03*
%TD*%
D18*
%TO.C,D4*%
X72275000Y-112000000D03*
X68725000Y-112000000D03*
%TD*%
%TO.C,D36*%
X204275000Y-75500000D03*
X200725000Y-75500000D03*
%TD*%
D17*
%TO.C,SW1*%
X68500000Y-140000000D03*
X71500000Y-140000000D03*
%TD*%
D14*
%TO.C,SW4*%
X74450000Y-106309550D03*
D15*
X71500000Y-101200000D03*
D14*
X69019873Y-106904294D03*
D19*
X65988784Y-108654294D03*
X77567691Y-104509550D03*
%TD*%
D14*
%TO.C,SW21*%
X154000000Y-55900000D03*
D15*
X154000000Y-50000000D03*
D14*
X149000000Y-53700000D03*
D16*
X145500000Y-53700000D03*
X157600000Y-55900000D03*
%TD*%
D18*
%TO.C,D15*%
X80275000Y-127000000D03*
X76725000Y-127000000D03*
%TD*%
D14*
%TO.C,SW9*%
X100000000Y-106900000D03*
D15*
X100000000Y-101000000D03*
D14*
X95000000Y-104700000D03*
D16*
X91500000Y-104700000D03*
X103600000Y-106900000D03*
%TD*%
D14*
%TO.C,SW8*%
X100000000Y-89900000D03*
D15*
X100000000Y-84000000D03*
D14*
X95000000Y-87700000D03*
D16*
X91500000Y-87700000D03*
X103600000Y-89900000D03*
%TD*%
D14*
%TO.C,SW15*%
X82950000Y-121109550D03*
D15*
X80000000Y-116000000D03*
D14*
X77519873Y-121704294D03*
D19*
X74488784Y-123454294D03*
X86067691Y-119309550D03*
%TD*%
D18*
%TO.C,D9*%
X96275000Y-109500000D03*
X92725000Y-109500000D03*
%TD*%
D14*
%TO.C,SW33*%
X190000000Y-98400000D03*
D15*
X190000000Y-92500000D03*
D14*
X185000000Y-96200000D03*
D16*
X181500000Y-96200000D03*
X193600000Y-98400000D03*
%TD*%
D14*
%TO.C,SW28*%
X172000000Y-98400000D03*
D15*
X172000000Y-92500000D03*
D14*
X167000000Y-96200000D03*
D16*
X163500000Y-96200000D03*
X175600000Y-98400000D03*
%TD*%
D14*
%TO.C,SW18*%
X136000000Y-81400000D03*
D15*
X136000000Y-75500000D03*
D14*
X131000000Y-79200000D03*
D16*
X127500000Y-79200000D03*
X139600000Y-81400000D03*
%TD*%
D14*
%TO.C,SW31*%
X190000000Y-64400000D03*
D15*
X190000000Y-58500000D03*
D14*
X185000000Y-62200000D03*
D16*
X181500000Y-62200000D03*
X193600000Y-64400000D03*
%TD*%
D14*
%TO.C,SW5*%
X58850000Y-115209550D03*
D15*
X55900000Y-110100000D03*
D14*
X53419873Y-115804294D03*
D19*
X50388784Y-117554294D03*
X61967691Y-113409550D03*
%TD*%
D18*
%TO.C,D40*%
X114275000Y-155500000D03*
X110725000Y-155500000D03*
%TD*%
D17*
%TO.C,SW00*%
X154750000Y-37500000D03*
X161250000Y-37500000D03*
%TD*%
D14*
%TO.C,SW34*%
X190000000Y-115400000D03*
D15*
X190000000Y-109500000D03*
D14*
X185000000Y-113200000D03*
D16*
X181500000Y-113200000D03*
X193600000Y-115400000D03*
%TD*%
D14*
%TO.C,SW30*%
X127000000Y-130900000D03*
D15*
X127000000Y-125000000D03*
D14*
X122000000Y-128700000D03*
D16*
X118500000Y-128700000D03*
X130600000Y-130900000D03*
%TD*%
D14*
%TO.C,SW6*%
X100000000Y-55900000D03*
D15*
X100000000Y-50000000D03*
D14*
X95000000Y-53700000D03*
D16*
X91500000Y-53700000D03*
X103600000Y-55900000D03*
%TD*%
D18*
%TO.C,D31*%
X186275000Y-67000000D03*
X182725000Y-67000000D03*
%TD*%
%TO.C,D10*%
X65275000Y-136000000D03*
X61725000Y-136000000D03*
%TD*%
D14*
%TO.C,SW24*%
X154000000Y-106900000D03*
D15*
X154000000Y-101000000D03*
D14*
X149000000Y-104700000D03*
D16*
X145500000Y-104700000D03*
X157600000Y-106900000D03*
%TD*%
D14*
%TO.C,SW12*%
X118000000Y-72900000D03*
D15*
X118000000Y-67000000D03*
D14*
X113000000Y-70700000D03*
D16*
X109500000Y-70700000D03*
X121600000Y-72900000D03*
%TD*%
D18*
%TO.C,D33*%
X186275000Y-101000000D03*
X182725000Y-101000000D03*
%TD*%
%TO.C,D24*%
X150275000Y-109500000D03*
X146725000Y-109500000D03*
%TD*%
D17*
%TO.C,SW3*%
X74500000Y-155000000D03*
X77500000Y-155000000D03*
%TD*%
D18*
%TO.C,D8*%
X96275000Y-92500000D03*
X92725000Y-92500000D03*
%TD*%
%TO.C,D23*%
X150275000Y-92500000D03*
X146725000Y-92500000D03*
%TD*%
D14*
%TO.C,SW7*%
X100000000Y-72900000D03*
D15*
X100000000Y-67000000D03*
D14*
X95000000Y-70700000D03*
D16*
X91500000Y-70700000D03*
X103600000Y-72900000D03*
%TD*%
D18*
%TO.C,D1*%
X75775000Y-137500000D03*
X72225000Y-137500000D03*
%TD*%
D14*
%TO.C,SW19*%
X136000000Y-98400000D03*
D15*
X136000000Y-92500000D03*
D14*
X131000000Y-96200000D03*
D16*
X127500000Y-96200000D03*
X139600000Y-98400000D03*
%TD*%
D14*
%TO.C,SW16*%
X136000000Y-47400000D03*
D15*
X136000000Y-41500000D03*
D14*
X131000000Y-45200000D03*
D16*
X127500000Y-45200000D03*
X139600000Y-47400000D03*
%TD*%
D18*
%TO.C,D37*%
X204275000Y-92500000D03*
X200725000Y-92500000D03*
%TD*%
%TO.C,D44*%
X203275000Y-59500000D03*
X199725000Y-59500000D03*
%TD*%
D20*
%TO.C,R2*%
X171175000Y-45500000D03*
X172825000Y-45500000D03*
%TD*%
D14*
%TO.C,SW10*%
X67450000Y-130109550D03*
D15*
X64500000Y-125000000D03*
D14*
X62019873Y-130704294D03*
D19*
X58988784Y-132454294D03*
X70567691Y-128309550D03*
%TD*%
D20*
%TO.C,R1*%
X171175000Y-48000000D03*
X172825000Y-48000000D03*
%TD*%
D18*
%TO.C,D25*%
X105275000Y-138500000D03*
X101725000Y-138500000D03*
%TD*%
%TO.C,D5*%
X56275000Y-120500000D03*
X52725000Y-120500000D03*
%TD*%
%TO.C,D28*%
X168275000Y-101000000D03*
X164725000Y-101000000D03*
%TD*%
%TO.C,D14*%
X114050000Y-109500000D03*
X110500000Y-109500000D03*
%TD*%
%TO.C,D19*%
X132275000Y-101000000D03*
X128725000Y-101000000D03*
%TD*%
%TO.C,D16*%
X132275000Y-50000000D03*
X128725000Y-50000000D03*
%TD*%
D14*
%TO.C,SW14*%
X118000000Y-106900000D03*
D15*
X118000000Y-101000000D03*
D14*
X113000000Y-104700000D03*
D16*
X109500000Y-104700000D03*
X121600000Y-106900000D03*
%TD*%
D14*
%TO.C,SW35*%
X100000000Y-157900000D03*
D15*
X100000000Y-152000000D03*
D14*
X95000000Y-155700000D03*
D16*
X91500000Y-155700000D03*
X103600000Y-157900000D03*
%TD*%
D18*
%TO.C,D38*%
X204275000Y-109500000D03*
X200725000Y-109500000D03*
%TD*%
D14*
%TO.C,SW39*%
X208000000Y-123900000D03*
D15*
X208000000Y-118000000D03*
D14*
X203000000Y-121700000D03*
D16*
X199500000Y-121700000D03*
X211600000Y-123900000D03*
%TD*%
D21*
%TO.C,J1*%
X165989000Y-42708200D03*
X165989000Y-35708200D03*
D22*
X163989000Y-46008200D03*
X167989000Y-37508200D03*
X167989000Y-40508200D03*
X167989000Y-44508200D03*
%TD*%
D14*
%TO.C,SW23*%
X154000000Y-89900000D03*
D15*
X154000000Y-84000000D03*
D14*
X149000000Y-87700000D03*
D16*
X145500000Y-87700000D03*
X157600000Y-89900000D03*
%TD*%
D18*
%TO.C,D41*%
X151275000Y-42500000D03*
X147725000Y-42500000D03*
%TD*%
%TO.C,D42*%
X168275000Y-69500000D03*
X164725000Y-69500000D03*
%TD*%
%TO.C,D21*%
X150275000Y-58500000D03*
X146725000Y-58500000D03*
%TD*%
D14*
%TO.C,SW36*%
X208000000Y-72900000D03*
D15*
X208000000Y-67000000D03*
D14*
X203000000Y-70700000D03*
D16*
X199500000Y-70700000D03*
X211600000Y-72900000D03*
%TD*%
D18*
%TO.C,D17*%
X132275000Y-67000000D03*
X128725000Y-67000000D03*
%TD*%
%TO.C,D34*%
X186275000Y-118000000D03*
X182725000Y-118000000D03*
%TD*%
D14*
%TO.C,SW37*%
X208000000Y-89900000D03*
D15*
X208000000Y-84000000D03*
D14*
X203000000Y-87700000D03*
D16*
X199500000Y-87700000D03*
X211600000Y-89900000D03*
%TD*%
D14*
%TO.C,SW26*%
X172000000Y-64400000D03*
D15*
X172000000Y-58500000D03*
D14*
X167000000Y-62200000D03*
D16*
X163500000Y-62200000D03*
X175600000Y-64400000D03*
%TD*%
D18*
%TO.C,D27*%
X168275000Y-84000000D03*
X164725000Y-84000000D03*
%TD*%
%TO.C,D13*%
X114275000Y-92500000D03*
X110725000Y-92500000D03*
%TD*%
%TO.C,D35*%
X95775000Y-159500000D03*
X92225000Y-159500000D03*
%TD*%
D14*
%TO.C,SW17*%
X136000000Y-64400000D03*
D15*
X136000000Y-58500000D03*
D14*
X131000000Y-62200000D03*
D16*
X127500000Y-62200000D03*
X139600000Y-64400000D03*
%TD*%
D18*
%TO.C,D3*%
X81775000Y-152500000D03*
X78225000Y-152500000D03*
%TD*%
D14*
%TO.C,SW29*%
X172000000Y-115400000D03*
D15*
X172000000Y-109500000D03*
D14*
X167000000Y-113200000D03*
D16*
X163500000Y-113200000D03*
X175600000Y-115400000D03*
%TD*%
D18*
%TO.C,D29*%
X168275000Y-118000000D03*
X164725000Y-118000000D03*
%TD*%
M02*
