M48
; DRILL file {KiCad 9.0.5} date 2026-02-28T21:51:56+0900
; FORMAT={-:-/ absolute / inch / decimal}
; #@! TF.CreationDate,2026-02-28T21:51:56+09:00
; #@! TF.GenerationSoftware,Kicad,Pcbnew,9.0.5
; #@! TF.FileFunction,NonPlated,1,2,NPTH
FMAT,2
INCH
; #@! TA.AperFunction,NonPlated,NPTH,ComponentDrill
T1C0.0472
; #@! TA.AperFunction,NonPlated,NPTH,ComponentDrill
T2C0.0866
; #@! TA.AperFunction,NonPlated,NPTH,ComponentDrill
T3C0.1181
; #@! TA.AperFunction,NonPlated,NPTH,ComponentDrill
T4C0.1890
%
G90
G05
T1
X6.535Y-1.4058
X6.535Y-1.6814
T2
X3.1496Y-3.5433
X3.2677Y-6.2205
X4.2913Y-2.3031
X5.7874Y-4.5472
X5.9055Y-1.4764
X7.5394Y-4.8031
X8.3071Y-2.2441
T3
X2.1031Y-4.5592
X2.3169Y-4.5358
X2.4417Y-5.1458
X2.6555Y-5.1224
X2.7173Y-4.2088
X2.9311Y-4.1854
X3.052Y-4.7915
X3.2657Y-4.7681
X3.3858Y-5.4606
X3.5827Y-5.5472
X3.7402Y-2.1142
X3.7402Y-2.7835
X3.7402Y-3.4528
X3.7402Y-4.122
X3.7402Y-6.1299
X3.937Y-2.2008
X3.937Y-2.8701
X3.937Y-3.5394
X3.937Y-4.2087
X3.937Y-6.2165
X4.0945Y-5.2638
X4.2913Y-5.3504
X4.4488Y-2.1142
X4.4488Y-2.7835
X4.4488Y-3.4528
X4.4488Y-4.122
X4.4488Y-5.9331
X4.6457Y-2.2008
X4.6457Y-2.8701
X4.6457Y-3.5394
X4.6457Y-4.2087
X4.6457Y-6.0197
X4.8031Y-5.0669
X5.0Y-5.1535
X5.1575Y-1.7795
X5.1575Y-2.4488
X5.1575Y-3.1181
X5.1575Y-3.7874
X5.3543Y-1.8661
X5.3543Y-2.5354
X5.3543Y-3.2047
X5.3543Y-3.874
X5.8661Y-2.1142
X5.8661Y-2.7835
X5.8661Y-3.4528
X5.8661Y-4.122
X6.063Y-2.2008
X6.063Y-2.8701
X6.063Y-3.5394
X6.063Y-4.2087
X6.5748Y-2.4488
X6.5748Y-3.1181
X6.5748Y-3.7874
X6.5748Y-4.4567
X6.7717Y-2.5354
X6.7717Y-3.2047
X6.7717Y-3.874
X6.7717Y-4.5433
X7.2835Y-2.4488
X7.2835Y-3.1181
X7.2835Y-3.7874
X7.2835Y-4.4567
X7.4803Y-2.5354
X7.4803Y-3.2047
X7.4803Y-3.874
X7.4803Y-4.5433
X7.9921Y-2.7835
X7.9921Y-3.4528
X7.9921Y-4.122
X7.9921Y-4.7913
X8.189Y-2.8701
X8.189Y-3.5394
X8.189Y-4.2087
X8.189Y-4.878
T4
X2.2008Y-4.3346
X2.5394Y-4.9213
X2.815Y-3.9843
X3.1496Y-4.5669
X3.5827Y-5.315
X3.937Y-1.9685
X3.937Y-2.6378
X3.937Y-3.3071
X3.937Y-3.9764
X3.937Y-5.9843
X4.2913Y-5.1181
X4.6457Y-1.9685
X4.6457Y-2.6378
X4.6457Y-3.3071
X4.6457Y-3.9764
X4.6457Y-5.7874
X5.0Y-4.9213
X5.3543Y-1.6339
X5.3543Y-2.3031
X5.3543Y-2.9724
X5.3543Y-3.6417
X6.063Y-1.9685
X6.063Y-2.6378
X6.063Y-3.3071
X6.063Y-3.9764
X6.7717Y-2.3031
X6.7717Y-2.9724
X6.7717Y-3.6417
X6.7717Y-4.311
X7.4803Y-2.3031
X7.4803Y-2.9724
X7.4803Y-3.6417
X7.4803Y-4.311
X8.189Y-2.6378
X8.189Y-3.3071
X8.189Y-3.9764
X8.189Y-4.6457
M30
